<svg xmlns="http://www.w3.org/2000/svg" xmlns:xlink="http://www.w3.org/1999/xlink" width="auto" zoomAndPan="magnify"
    viewBox="0 0 1536 1151.999944" height="auto" preserveAspectRatio="xMidYMid meet" version="1.2">
    <defs>
        <clipPath id="69addc2bd2">
            <path d="M 551 823 L 1070 823 L 1070 1061.964844 L 551 1061.964844 Z M 551 823 " />
        </clipPath>
        <clipPath id="185a6d38b5">
            <path d="M 927 89.964844 L 1107 89.964844 L 1107 310 L 927 310 Z M 927 89.964844 " />
        </clipPath>
    </defs>
    <g id="29bb01c5de">
        <path style=" stroke:none;fill-rule:nonzero;fill:#b1b9c6;fill-opacity:1;"
            d="M 1160.480469 667.160156 C 1160.949219 669.207031 1161.367188 671.261719 1161.738281 673.328125 C 1162.105469 675.394531 1162.425781 677.46875 1162.691406 679.550781 C 1162.957031 681.628906 1163.171875 683.71875 1163.339844 685.808594 C 1163.503906 687.902344 1163.617188 689.996094 1163.675781 692.09375 C 1163.738281 694.191406 1163.75 696.289062 1163.707031 698.386719 C 1163.667969 700.484375 1163.574219 702.582031 1163.429688 704.675781 C 1163.285156 706.769531 1163.089844 708.855469 1162.84375 710.941406 C 1162.59375 713.023438 1162.296875 715.101562 1161.949219 717.171875 C 1161.601562 719.238281 1161.199219 721.300781 1160.75 723.347656 C 1160.300781 725.398438 1159.800781 727.4375 1159.25 729.460938 C 1158.699219 731.484375 1158.101562 733.496094 1157.453125 735.492188 C 1156.804688 737.488281 1156.105469 739.464844 1155.359375 741.429688 C 1154.613281 743.390625 1153.820312 745.332031 1152.980469 747.253906 C 1152.136719 749.175781 1151.25 751.078125 1150.316406 752.957031 C 1149.382812 754.835938 1148.402344 756.691406 1147.375 758.519531 C 1146.347656 760.351562 1145.28125 762.15625 1144.164062 763.933594 C 1143.050781 765.714844 1141.894531 767.464844 1140.695312 769.183594 C 1139.492188 770.90625 1138.25 772.597656 1136.96875 774.257812 C 1135.683594 775.917969 1134.363281 777.546875 1133 779.140625 C 1131.636719 780.738281 1130.234375 782.296875 1128.792969 783.824219 C 1127.355469 785.351562 1125.878906 786.84375 1124.363281 788.296875 C 1122.851562 789.75 1121.304688 791.167969 1119.71875 792.546875 C 1118.136719 793.925781 1116.523438 795.261719 1114.875 796.5625 C 1113.226562 797.859375 1111.546875 799.117188 1109.835938 800.335938 C 1108.125 801.550781 1106.386719 802.726562 1104.617188 803.855469 C 1102.851562 804.988281 1101.058594 806.074219 1099.234375 807.117188 C 1097.414062 808.160156 1095.570312 809.160156 1093.699219 810.113281 C 1091.828125 811.066406 1089.9375 811.96875 1088.019531 812.832031 C 1086.105469 813.691406 1084.171875 814.503906 1082.21875 815.265625 C 1080.261719 816.03125 1078.289062 816.746094 1076.300781 817.414062 C 1074.3125 818.082031 1072.304688 818.703125 1070.285156 819.273438 C 1068.265625 819.839844 1066.234375 820.359375 1064.1875 820.832031 C 1062.140625 821.300781 1060.085938 821.71875 1058.019531 822.085938 C 1055.953125 822.457031 1053.878906 822.773438 1051.796875 823.042969 C 1049.714844 823.308594 1047.628906 823.523438 1045.535156 823.6875 C 1043.445312 823.851562 1041.347656 823.964844 1039.25 824.027344 C 1037.152344 824.089844 1035.054688 824.097656 1032.957031 824.058594 C 1030.855469 824.015625 1028.761719 823.921875 1026.667969 823.78125 C 1024.574219 823.636719 1022.484375 823.441406 1020.398438 823.191406 C 1018.316406 822.945312 1016.238281 822.648438 1014.167969 822.300781 C 1012.097656 821.949219 1010.039062 821.550781 1007.988281 821.101562 C 1005.9375 820.652344 1003.902344 820.152344 1001.875 819.601562 C 999.851562 819.050781 997.839844 818.453125 995.84375 817.804688 C 993.847656 817.15625 991.867188 816.457031 989.90625 815.710938 C 987.945312 814.964844 986.003906 814.171875 984.078125 813.332031 C 982.15625 812.492188 980.253906 811.601562 978.375 810.667969 C 976.496094 809.734375 974.640625 808.753906 972.808594 807.726562 C 970.980469 806.703125 969.175781 805.632812 967.394531 804.519531 C 965.617188 803.40625 963.867188 802.246094 962.144531 801.046875 C 960.421875 799.847656 958.730469 798.605469 957.070312 797.324219 C 955.410156 796.039062 953.78125 794.71875 952.1875 793.355469 C 950.589844 791.992188 949.027344 790.589844 947.5 789.148438 C 945.972656 787.710938 944.484375 786.234375 943.027344 784.722656 C 941.574219 783.207031 940.15625 781.660156 938.777344 780.078125 C 937.402344 778.496094 936.0625 776.882812 934.761719 775.234375 C 933.460938 773.585938 932.203125 771.90625 930.988281 770.195312 C 929.769531 768.488281 928.597656 766.746094 927.464844 764.980469 C 926.335938 763.214844 925.246094 761.417969 924.203125 759.597656 C 923.160156 757.777344 922.160156 755.933594 921.210938 754.0625 C 920.257812 752.191406 919.351562 750.300781 918.492188 748.386719 C 917.628906 746.472656 916.820312 744.539062 916.054688 742.582031 C 915.289062 740.628906 914.574219 738.65625 913.90625 736.667969 C 913.238281 734.679688 912.617188 732.671875 912.046875 730.652344 C 911.480469 728.632812 910.960938 726.601562 910.488281 724.554688 C 910.019531 722.511719 909.601562 720.457031 909.230469 718.390625 C 908.863281 716.324219 908.542969 714.25 908.277344 712.167969 C 908.011719 710.085938 907.796875 708 907.628906 705.910156 C 907.464844 703.816406 907.351562 701.722656 907.292969 699.625 C 907.230469 697.527344 907.21875 695.429688 907.261719 693.332031 C 907.300781 691.234375 907.394531 689.136719 907.539062 687.042969 C 907.683594 684.949219 907.878906 682.863281 908.125 680.777344 C 908.371094 678.695312 908.671875 676.617188 909.019531 674.546875 C 909.367188 672.476562 909.769531 670.417969 910.21875 668.367188 C 910.667969 666.320312 911.167969 664.28125 911.71875 662.257812 C 912.269531 660.230469 912.867188 658.222656 913.515625 656.226562 C 914.164062 654.230469 914.863281 652.25 915.609375 650.289062 C 916.355469 648.328125 917.148438 646.386719 917.988281 644.464844 C 918.832031 642.542969 919.71875 640.640625 920.652344 638.761719 C 921.585938 636.882812 922.566406 635.027344 923.59375 633.195312 C 924.617188 631.367188 925.6875 629.5625 926.804688 627.785156 C 927.917969 626.003906 929.074219 624.253906 930.273438 622.535156 C 931.476562 620.8125 932.71875 619.121094 934 617.460938 C 935.285156 615.800781 936.605469 614.171875 937.96875 612.578125 C 939.332031 610.980469 940.734375 609.417969 942.175781 607.894531 C 943.613281 606.367188 945.089844 604.875 946.605469 603.421875 C 948.117188 601.964844 949.664062 600.550781 951.25 599.171875 C 952.832031 597.792969 954.445312 596.453125 956.09375 595.15625 C 957.742188 593.855469 959.421875 592.597656 961.132812 591.382812 C 962.84375 590.167969 964.582031 588.992188 966.347656 587.859375 C 968.117188 586.730469 969.910156 585.644531 971.734375 584.597656 C 973.554688 583.554688 975.398438 582.558594 977.269531 581.605469 C 979.140625 580.652344 981.03125 579.746094 982.949219 578.886719 C 984.863281 578.027344 986.796875 577.214844 988.75 576.453125 C 990.707031 575.6875 992.679688 574.96875 994.667969 574.300781 C 996.65625 573.632812 998.664062 573.015625 1000.683594 572.445312 C 1002.703125 571.878906 1004.734375 571.359375 1006.78125 570.886719 C 1008.828125 570.417969 1010.882812 570 1012.949219 569.628906 C 1015.015625 569.261719 1017.089844 568.945312 1019.171875 568.675781 C 1021.253906 568.410156 1023.339844 568.195312 1025.433594 568.03125 C 1027.523438 567.863281 1029.621094 567.753906 1031.71875 567.691406 C 1033.816406 567.628906 1035.914062 567.617188 1038.011719 567.660156 C 1040.113281 567.703125 1042.207031 567.792969 1044.300781 567.9375 C 1046.394531 568.082031 1048.484375 568.277344 1050.570312 568.523438 C 1052.652344 568.773438 1054.730469 569.070312 1056.800781 569.417969 C 1058.871094 569.765625 1060.929688 570.167969 1062.980469 570.617188 C 1065.03125 571.066406 1067.066406 571.566406 1069.09375 572.117188 C 1071.117188 572.667969 1073.128906 573.265625 1075.125 573.914062 C 1077.121094 574.5625 1079.101562 575.261719 1081.0625 576.003906 C 1083.023438 576.75 1084.964844 577.546875 1086.890625 578.386719 C 1088.8125 579.226562 1090.714844 580.113281 1092.59375 581.050781 C 1094.472656 581.984375 1096.328125 582.964844 1098.160156 583.988281 C 1099.988281 585.015625 1101.792969 586.085938 1103.574219 587.199219 C 1105.351562 588.3125 1107.101562 589.46875 1108.824219 590.671875 C 1110.546875 591.871094 1112.238281 593.113281 1113.898438 594.394531 C 1115.558594 595.675781 1117.1875 597 1118.78125 598.363281 C 1120.378906 599.726562 1121.941406 601.128906 1123.46875 602.566406 C 1124.996094 604.007812 1126.484375 605.484375 1127.941406 606.996094 C 1129.394531 608.507812 1130.8125 610.058594 1132.191406 611.640625 C 1133.566406 613.222656 1134.90625 614.835938 1136.207031 616.484375 C 1137.503906 618.132812 1138.765625 619.8125 1139.980469 621.523438 C 1141.199219 623.230469 1142.371094 624.96875 1143.503906 626.738281 C 1144.632812 628.503906 1145.722656 630.300781 1146.765625 632.121094 C 1147.808594 633.941406 1148.804688 635.785156 1149.757812 637.65625 C 1150.710938 639.527344 1151.617188 641.417969 1152.476562 643.332031 C 1153.335938 645.246094 1154.148438 647.179688 1154.914062 649.136719 C 1155.679688 651.089844 1156.394531 653.0625 1157.0625 655.050781 C 1157.730469 657.039062 1158.351562 659.042969 1158.921875 661.0625 C 1159.488281 663.082031 1160.007812 665.117188 1160.480469 667.160156 Z M 1160.480469 667.160156 " />
        <path style=" stroke:none;fill-rule:nonzero;fill:#d4afb7;fill-opacity:1;"
            d="M 1058.425781 802.847656 L 1058.425781 947.222656 C 1058.425781 1004.253906 947.488281 1050.488281 810.644531 1050.488281 C 673.796875 1050.488281 562.863281 1004.253906 562.863281 947.222656 L 562.863281 787.9375 Z M 1058.425781 802.847656 " />
        <path style=" stroke:none;fill-rule:nonzero;fill:#ffffff;fill-opacity:1;"
            d="M 562.863281 806.046875 C 562.863281 863.078125 673.796875 909.3125 810.640625 909.3125 C 947.488281 909.3125 1058.421875 863.078125 1058.421875 806.046875 L 1058.421875 834.609375 C 1058.421875 891.640625 947.488281 937.875 810.640625 937.875 C 673.796875 937.875 562.863281 891.640625 562.863281 834.609375 Z M 562.863281 806.046875 " />
        <path style=" stroke:none;fill-rule:nonzero;fill:#ffffff;fill-opacity:1;"
            d="M 562.863281 871.960938 C 562.863281 928.992188 673.796875 975.226562 810.640625 975.226562 C 947.488281 975.226562 1058.421875 928.992188 1058.421875 871.960938 L 1058.421875 900.519531 C 1058.421875 957.550781 947.488281 1003.785156 810.640625 1003.785156 C 673.796875 1003.785156 562.863281 957.550781 562.863281 900.519531 Z M 562.863281 871.960938 " />
        <path style=" stroke:none;fill-rule:nonzero;fill:#ffbf8c;fill-opacity:1;"
            d="M 715.179688 190.261719 C 676.949219 171.96875 605.042969 255.113281 574.175781 294.015625 C 553.398438 297.671875 527.609375 305.257812 498.660156 315.609375 C 469.617188 325.703125 444.769531 335.96875 426.292969 346.15625 C 377.828125 335.203125 269.675781 315.578125 251.390625 353.78125 C 233.230469 391.71875 292.417969 457.425781 320.96875 485.933594 C 313.101562 525.640625 318.6875 564.121094 329.613281 595.101562 C 339.0625 621.890625 351.695312 647.519531 367.546875 672.011719 C 398.5 719.8125 453.9375 745.355469 510.335938 737.457031 C 553.882812 731.339844 595.984375 721.117188 636.632812 706.785156 C 677.28125 692.453125 716.484375 674.011719 754.234375 651.460938 C 803.109375 622.242188 830.261719 567.585938 824.375 510.945312 C 821.355469 481.929688 815.109375 454.046875 805.664062 427.257812 C 794.738281 396.285156 774.953125 362.820312 743.929688 336.835938 C 748.25 296.773438 753.140625 208.421875 715.179688 190.261719 Z M 715.179688 190.261719 " />
        <path style=" stroke:none;fill-rule:nonzero;fill:#ff9d6f;fill-opacity:1;"
            d="M 312.957031 493.976562 C 297.453125 478.492188 275.53125 454.75 259.152344 429.59375 C 237.488281 396.3125 231.429688 369.15625 241.136719 348.875 C 251.355469 327.523438 279.761719 318.144531 327.980469 320.191406 C 363.460938 321.699219 402.378906 329.128906 428.78125 335.09375 L 423.777344 357.238281 C 335.261719 337.238281 271.609375 337.800781 261.617188 358.679688 C 251.242188 380.347656 277.0625 426.039062 329.003906 477.914062 Z M 312.957031 493.976562 " />
        <path style=" stroke:none;fill-rule:nonzero;fill:#ff9d6f;fill-opacity:1;"
            d="M 755.203125 338.042969 L 732.625 335.617188 C 740.472656 262.625 731.902344 210.847656 710.261719 200.496094 C 689.347656 190.492188 639.429688 229.96875 583.074219 301.074219 L 565.277344 286.972656 C 612.730469 227.097656 678.109375 159.933594 720.066406 180.015625 C 742.679688 190.835938 767.132812 227.035156 755.203125 338.042969 Z M 755.203125 338.042969 " />
        <path style=" stroke:none;fill-rule:nonzero;fill:#ffffff;fill-opacity:1;"
            d="M 706.128906 270.144531 C 706.128906 270.144531 714.378906 278.921875 719.234375 290.300781 C 723.742188 300.8125 720.152344 311.316406 712.875 317.742188 C 687.894531 303.757812 660.046875 294.945312 631.125 292.203125 C 629.304688 286.277344 629.726562 279.679688 632.960938 273.6875 C 645.925781 249.609375 665.714844 221.597656 687.074219 222.617188 C 724.289062 224.421875 706.128906 270.144531 706.128906 270.144531 Z M 706.128906 270.144531 " />
        <path style=" stroke:none;fill-rule:nonzero;fill:#ffffff;fill-opacity:1;"
            d="M 308.539062 410.328125 C 308.539062 410.328125 307.617188 422.332031 310.980469 434.242188 C 314.0625 445.253906 323.445312 451.1875 333.144531 451.621094 C 343.824219 425.066406 359.988281 400.738281 380.789062 380.464844 C 378.488281 374.707031 374.019531 369.832031 367.746094 367.195312 C 342.542969 356.578125 309.554688 347.171875 293.558594 361.363281 C 265.707031 386.109375 308.539062 410.328125 308.539062 410.328125 Z M 308.539062 410.328125 " />
        <path style=" stroke:none;fill-rule:nonzero;fill:#ff9d6f;fill-opacity:1;"
            d="M 490.371094 750.199219 C 437.597656 750.199219 387.257812 723.339844 358.019531 678.179688 C 341.78125 653.101562 328.625 626.417969 318.910156 598.875 C 307.71875 567.148438 293.644531 503.972656 325.117188 437.351562 C 327.796875 431.683594 334.566406 429.261719 340.234375 431.933594 C 345.902344 434.613281 348.328125 441.378906 345.648438 447.046875 C 317.644531 506.324219 330.289062 562.886719 340.324219 591.324219 C 349.445312 617.1875 361.8125 642.257812 377.082031 665.84375 C 405.503906 709.738281 457.183594 733.4375 508.761719 726.214844 C 551.359375 720.230469 593.109375 710.089844 632.855469 696.078125 C 672.605469 682.0625 711.484375 663.773438 748.414062 641.714844 C 793.105469 615 818.492188 564.128906 813.082031 512.117188 C 810.179688 484.175781 804.082031 456.894531 794.957031 431.03125 C 784.925781 402.589844 759.289062 350.605469 700.289062 322.011719 C 694.648438 319.273438 692.292969 312.484375 695.027344 306.84375 C 697.761719 301.203125 704.554688 298.847656 710.195312 301.582031 C 776.503906 333.722656 805.179688 391.75 816.371094 423.480469 C 826.085938 451.023438 832.578125 480.054688 835.667969 509.773438 C 841.984375 570.53125 812.308594 629.972656 760.0625 661.203125 C 721.835938 684.039062 681.578125 702.972656 640.40625 717.488281 C 599.238281 732.003906 556.007812 742.503906 511.914062 748.699219 C 504.71875 749.703125 497.523438 750.195312 490.371094 750.199219 Z M 490.371094 750.199219 " />
        <path style=" stroke:none;fill-rule:nonzero;fill:#ff9d6f;fill-opacity:1;"
            d="M 380.742188 391.738281 C 377.746094 391.738281 374.757812 390.558594 372.527344 388.222656 C 368.199219 383.683594 368.367188 376.5 372.90625 372.171875 C 382.394531 363.121094 392.992188 354.433594 404.410156 346.351562 C 422.863281 333.300781 453.320312 319.351562 494.933594 304.886719 C 536.320312 290.085938 568.785156 281.847656 591.335938 280.441406 C 605.308594 279.578125 619.015625 279.695312 632.082031 280.789062 C 638.332031 281.316406 642.96875 286.804688 642.445312 293.050781 C 641.921875 299.296875 636.433594 303.910156 630.183594 303.414062 C 618.210938 302.410156 605.613281 302.300781 592.742188 303.097656 C 572.328125 304.375 541.953125 312.179688 502.484375 326.296875 C 462.785156 340.097656 434.234375 353.066406 417.527344 364.878906 C 407.011719 372.328125 397.269531 380.308594 388.578125 388.601562 C 386.378906 390.695312 383.558594 391.738281 380.742188 391.738281 Z M 380.742188 391.738281 " />
        <path style=" stroke:none;fill-rule:nonzero;fill:#605c5d;fill-opacity:1;"
            d="M 702.671875 487.34375 C 697.472656 472.597656 681.304688 464.859375 666.558594 470.0625 C 651.808594 475.261719 644.074219 491.425781 649.273438 506.171875 C 654.472656 520.914062 670.640625 528.652344 685.390625 523.453125 C 700.136719 518.25 707.875 502.085938 702.671875 487.34375 Z M 702.671875 487.34375 " />
        <path style=" stroke:none;fill-rule:nonzero;fill:#605c5d;fill-opacity:1;"
            d="M 500.921875 558.472656 C 495.722656 543.730469 479.554688 535.996094 464.804688 541.191406 C 450.058594 546.390625 442.320312 562.558594 447.523438 577.304688 C 452.722656 592.046875 468.890625 599.78125 483.636719 594.585938 C 498.386719 589.386719 506.121094 573.21875 500.921875 558.472656 Z M 500.921875 558.472656 " />
        <path style=" stroke:none;fill-rule:nonzero;fill:#ffffff;fill-opacity:1;"
            d="M 714.996094 537.859375 C 710.316406 537.859375 705.933594 534.945312 704.289062 530.28125 C 702.207031 524.367188 705.308594 517.886719 711.222656 515.800781 L 753.414062 500.925781 C 759.320312 498.839844 765.8125 501.941406 767.894531 507.855469 C 769.980469 513.765625 766.878906 520.25 760.964844 522.335938 L 718.773438 537.210938 C 717.523438 537.652344 716.25 537.859375 714.996094 537.859375 Z M 714.996094 537.859375 " />
        <path style=" stroke:none;fill-rule:nonzero;fill:#ffffff;fill-opacity:1;"
            d="M 763.496094 565.3125 C 763.433594 565.3125 763.375 565.3125 763.3125 565.3125 L 724.285156 564.699219 C 718.019531 564.601562 713.015625 559.441406 713.113281 553.171875 C 713.210938 546.902344 718.367188 541.875 724.644531 542 L 763.671875 542.609375 C 769.941406 542.710938 774.941406 547.867188 774.84375 554.140625 C 774.746094 560.347656 769.683594 565.3125 763.496094 565.3125 Z M 763.496094 565.3125 " />
        <path style=" stroke:none;fill-rule:nonzero;fill:#ffffff;fill-opacity:1;"
            d="M 420.308594 641.761719 C 415.625 641.761719 411.246094 638.847656 409.601562 634.183594 C 407.515625 628.273438 410.617188 621.789062 416.53125 619.703125 L 458.722656 604.828125 C 464.632812 602.742188 471.121094 605.84375 473.207031 611.757812 C 475.289062 617.671875 472.1875 624.152344 466.273438 626.238281 L 424.082031 641.113281 C 422.835938 641.554688 421.558594 641.761719 420.308594 641.761719 Z M 420.308594 641.761719 " />
        <path style=" stroke:none;fill-rule:nonzero;fill:#ffffff;fill-opacity:1;"
            d="M 441.960938 678.679688 C 438.703125 678.679688 435.46875 677.285156 433.222656 674.585938 C 429.214844 669.765625 429.871094 662.609375 434.691406 658.601562 L 464.703125 633.648438 C 469.523438 629.640625 476.683594 630.296875 480.691406 635.117188 C 484.703125 639.9375 484.042969 647.09375 479.222656 651.101562 L 449.214844 676.054688 C 447.09375 677.820312 444.519531 678.679688 441.960938 678.679688 Z M 441.960938 678.679688 " />
        <path style=" stroke:none;fill-rule:nonzero;fill:#605c5d;fill-opacity:1;"
            d="M 453.394531 566.984375 C 444.285156 566.984375 432.988281 565.574219 422.164062 560.390625 C 416.511719 557.6875 414.117188 550.910156 416.824219 545.253906 C 419.53125 539.601562 426.3125 537.210938 431.96875 539.914062 C 447.695312 547.441406 466.304688 543 466.488281 542.953125 C 472.566406 541.390625 478.746094 545.0625 480.304688 551.132812 C 481.859375 557.207031 478.191406 563.390625 472.121094 564.945312 C 471.546875 565.09375 463.929688 566.984375 453.394531 566.984375 Z M 453.394531 566.984375 " />
        <path style=" stroke:none;fill-rule:nonzero;fill:#605c5d;fill-opacity:1;"
            d="M 665.503906 496.132812 C 661.191406 496.132812 657.066406 493.664062 655.164062 489.484375 C 652.570312 483.789062 655.070312 477.074219 660.75 474.464844 C 661.082031 474.3125 678.261719 466.117188 685.769531 450.429688 C 688.476562 444.777344 695.253906 442.386719 700.914062 445.089844 C 706.566406 447.796875 708.960938 454.574219 706.253906 460.230469 C 695.082031 483.566406 671.214844 494.648438 670.207031 495.105469 C 668.675781 495.800781 667.078125 496.132812 665.503906 496.132812 Z M 665.503906 496.132812 " />
        <path style=" stroke:none;fill-rule:nonzero;fill:#605c5d;fill-opacity:1;"
            d="M 626.777344 598.5 C 623.066406 606.316406 617.015625 612.722656 607.546875 616.359375 C 586.515625 624.492188 568.691406 611.246094 555.730469 595.007812 C 541.648438 577.332031 533.367188 556.089844 532.9375 554.976562 C 539.164062 563.761719 550.761719 567.578125 561.308594 563.507812 C 573.699219 558.683594 579.890625 544.75 575.101562 532.328125 C 579.894531 544.75 593.863281 550.90625 606.289062 546.121094 C 616.800781 542.050781 622.851562 531.429688 621.519531 520.703125 C 621.519531 520.699219 640.53125 569.410156 626.777344 598.5 Z M 626.777344 598.5 " />
        <path style=" stroke:none;fill-rule:nonzero;fill:#fd80a6;fill-opacity:1;"
            d="M 626.777344 598.5 C 623.066406 606.316406 617.015625 612.722656 607.546875 616.359375 C 586.515625 624.492188 568.691406 611.246094 555.730469 595.007812 C 570.851562 580.246094 590.660156 568.945312 610.785156 580.066406 C 619 584.605469 624.003906 591.050781 626.777344 598.5 Z M 626.777344 598.5 " />
        <path style=" stroke:none;fill-rule:nonzero;fill:#ff9d6f;fill-opacity:1;"
            d="M 630.1875 517.339844 C 628.484375 512.976562 623.804688 510.5625 619.261719 511.710938 C 614.71875 512.855469 611.742188 517.203125 612.3125 521.851562 C 613.144531 528.585938 609.289062 535.003906 602.941406 537.457031 C 595.3125 540.402344 586.707031 536.597656 583.761719 528.976562 C 583.570312 528.488281 583.324219 528.042969 583.066406 527.605469 L 586.34375 526.449219 C 592.261719 524.363281 595.363281 517.878906 593.277344 511.96875 C 591.191406 506.058594 584.707031 502.953125 578.792969 505.039062 L 555.097656 513.394531 C 549.183594 515.476562 546.078125 521.960938 548.164062 527.871094 C 549.808594 532.535156 554.191406 535.453125 558.871094 535.453125 C 560.125 535.453125 561.398438 535.246094 562.648438 534.804688 L 565.925781 533.648438 C 566.023438 534.324219 566.171875 535.003906 566.429688 535.667969 C 569.375 543.289062 565.566406 551.886719 557.941406 554.832031 C 551.585938 557.285156 544.414062 555.128906 540.5 549.582031 C 537.796875 545.753906 532.675781 544.535156 528.539062 546.738281 C 524.40625 548.941406 522.5625 553.875 524.230469 558.25 C 525.03125 560.34375 544.214844 609.722656 576.5 624.082031 C 582.546875 626.773438 588.65625 628.117188 594.78125 628.117188 C 600.152344 628.117188 605.539062 627.085938 610.898438 625.011719 C 622.378906 620.582031 630.734375 612.574219 635.742188 601.207031 C 649.996094 568.878906 631.003906 519.425781 630.1875 517.339844 Z M 618.734375 593.742188 C 615.746094 600.503906 610.996094 605.0625 604.207031 607.6875 C 597.421875 610.308594 590.835938 610.125 584.078125 607.125 C 571.710938 601.632812 560.777344 587.550781 552.925781 574.414062 C 556.84375 574.371094 560.808594 573.636719 564.640625 572.15625 C 573.472656 568.746094 580.03125 561.96875 583.417969 553.855469 C 591.382812 557.585938 600.800781 558.195312 609.636719 554.785156 C 613.460938 553.304688 616.886719 551.1875 619.8125 548.585938 C 622.832031 563.59375 624.199219 581.367188 618.734375 593.742188 Z M 618.734375 593.742188 " />
        <path style=" stroke:none;fill-rule:nonzero;fill:#b1b9c6;fill-opacity:1;"
            d="M 1268.351562 210.507812 C 1238.382812 180.546875 1142.90625 235.050781 1100.859375 261.472656 C 1080.046875 258.011719 1053.203125 256.589844 1022.460938 256.726562 C 991.714844 256.589844 964.863281 258.011719 944.050781 261.472656 C 901.988281 235.027344 806.523438 180.5625 776.570312 210.507812 C 746.828125 240.246094 780.789062 321.894531 798.230469 358.273438 C 777.605469 393.105469 770.070312 431.25 770.070312 464.101562 C 770.070312 492.507812 773.457031 520.878906 780.261719 549.25 C 793.550781 604.621094 837.335938 647.140625 893.152344 658.445312 C 936.253906 667.15625 979.359375 671.515625 1022.460938 671.515625 C 1065.5625 671.515625 1108.667969 667.15625 1151.769531 658.445312 C 1207.585938 647.140625 1251.371094 604.621094 1264.660156 549.25 C 1271.46875 520.878906 1274.851562 492.507812 1274.851562 464.101562 C 1274.851562 431.261719 1267.324219 393.125 1246.707031 358.300781 C 1264.105469 321.953125 1298.105469 240.257812 1268.351562 210.507812 Z M 1268.351562 210.507812 " />
        <path style=" stroke:none;fill-rule:nonzero;fill:#91a2b5;fill-opacity:1;"
            d="M 1052.976562 277.003906 C 1052.976562 324.019531 1039.292969 362.113281 1022.476562 362.113281 C 1005.625 362.113281 991.941406 324.019531 991.941406 277.003906 C 991.941406 270.558594 992.191406 264.292969 992.695312 258.28125 C 1012.539062 257.382812 1032.378906 257.382812 1052.21875 258.316406 C 1052.722656 264.332031 1052.976562 270.59375 1052.976562 277.003906 Z M 1052.976562 277.003906 " />
        <path style=" stroke:none;fill-rule:nonzero;fill:#91a2b5;fill-opacity:1;"
            d="M 987.441406 261.558594 C 987.441406 308.542969 973.792969 346.667969 956.941406 346.667969 C 940.734375 346.667969 927.410156 311.203125 926.476562 266.5625 C 936.953125 263.824219 947.792969 261.882812 958.882812 260.765625 C 968.390625 259.832031 977.898438 259.070312 987.402344 258.570312 C 987.441406 259.578125 987.441406 260.550781 987.441406 261.558594 Z M 987.441406 261.558594 " />
        <path style=" stroke:none;fill-rule:nonzero;fill:#91a2b5;fill-opacity:1;"
            d="M 1118.441406 266.164062 C 1117.574219 310.988281 1104.253906 346.667969 1087.976562 346.667969 C 1071.125 346.667969 1057.476562 308.542969 1057.476562 261.558594 C 1057.476562 260.550781 1057.476562 259.578125 1057.515625 258.570312 C 1068.425781 259.144531 1079.371094 260.042969 1090.28125 261.199219 C 1099.898438 262.207031 1109.296875 263.898438 1118.441406 266.164062 Z M 1118.441406 266.164062 " />
        <path style=" stroke:none;fill-rule:nonzero;fill:#678490;fill-opacity:1;"
            d="M 787.992188 363.195312 C 778.519531 343.433594 765.746094 313.753906 758.667969 284.585938 C 749.308594 246 752.621094 218.371094 768.523438 202.472656 C 785.265625 185.738281 815.175781 186.332031 859.96875 204.300781 C 892.921875 217.515625 927.15625 237.464844 950.074219 251.871094 L 937.988281 271.089844 C 861.164062 222.796875 800.945312 202.164062 784.582031 218.527344 C 767.589844 235.515625 776.742188 287.191406 808.46875 353.382812 Z M 787.992188 363.195312 " />
        <path style=" stroke:none;fill-rule:nonzero;fill:#ffffff;fill-opacity:1;"
            d="M 1233.242188 282.835938 C 1233.242188 282.835938 1238.101562 293.855469 1238.894531 306.203125 C 1239.648438 317.617188 1232.773438 326.328125 1223.769531 329.964844 C 1204.863281 308.472656 1181.53125 290.902344 1155.171875 278.699219 C 1155.421875 272.507812 1158.015625 266.421875 1163.058594 261.847656 C 1183.292969 243.453125 1211.273438 223.613281 1231.082031 231.679688 C 1265.578125 245.753906 1233.242188 282.835938 1233.242188 282.835938 Z M 1233.242188 282.835938 " />
        <path style=" stroke:none;fill-rule:nonzero;fill:#ffffff;fill-opacity:1;"
            d="M 811.652344 282.835938 C 811.652344 282.835938 806.789062 293.855469 806 306.203125 C 805.242188 317.617188 812.121094 326.328125 821.121094 329.964844 C 840.027344 308.472656 863.363281 290.902344 889.722656 278.699219 C 889.46875 272.507812 886.875 266.421875 881.835938 261.847656 C 861.597656 243.453125 833.617188 223.613281 813.8125 231.679688 C 779.316406 245.753906 811.652344 282.835938 811.652344 282.835938 Z M 811.652344 282.835938 " />
        <path style=" stroke:none;fill-rule:nonzero;fill:#678490;fill-opacity:1;"
            d="M 1276.363281 202.472656 C 1244.082031 170.195312 1162.582031 209.667969 1098.433594 249.613281 C 1078.46875 246.660156 1053.058594 245.234375 1022.507812 245.378906 C 978.429688 245.160156 945.09375 248.210938 923.347656 254.382812 C 909.898438 258.210938 897.011719 262.875 885.046875 268.257812 C 879.328125 270.832031 876.777344 277.550781 879.351562 283.265625 C 881.242188 287.472656 885.378906 289.964844 889.710938 289.964844 C 891.265625 289.964844 892.851562 289.640625 894.363281 288.960938 C 905.328125 284.03125 917.167969 279.742188 929.554688 276.21875 C 949.242188 270.628906 980.460938 267.878906 1022.507812 268.078125 C 1064.433594 267.898438 1095.671875 270.628906 1115.347656 276.214844 C 1127.75 279.742188 1139.59375 284.03125 1150.550781 288.960938 C 1156.273438 291.53125 1162.988281 288.980469 1165.5625 283.265625 C 1168.136719 277.546875 1165.585938 270.828125 1159.867188 268.257812 C 1150.484375 264.035156 1140.511719 260.269531 1130.152344 256.984375 C 1208.195312 211.453125 1248.9375 207.160156 1260.304688 218.523438 C 1275.664062 233.878906 1269.621094 277.695312 1244.832031 335 C 1239.457031 327.804688 1233.429688 320.714844 1226.617188 313.835938 C 1222.203125 309.378906 1215.015625 309.34375 1210.5625 313.753906 C 1206.105469 318.164062 1206.066406 325.351562 1210.476562 329.804688 C 1256.605469 376.394531 1263.492188 433.945312 1263.492188 464.101562 C 1263.492188 491.523438 1260.167969 519.28125 1253.617188 546.597656 C 1241.414062 597.445312 1200.550781 636.980469 1149.515625 647.3125 C 1107.351562 655.835938 1064.605469 660.160156 1022.457031 660.160156 C 980.308594 660.160156 937.5625 655.835938 895.402344 647.316406 C 844.359375 636.976562 803.496094 597.445312 791.296875 546.597656 C 784.742188 519.277344 781.417969 491.523438 781.417969 464.097656 C 781.417969 433.941406 788.304688 376.390625 834.433594 329.804688 C 838.84375 325.347656 838.808594 318.164062 834.351562 313.75 C 829.894531 309.339844 822.707031 309.375 818.296875 313.832031 C 766.453125 366.191406 758.710938 430.453125 758.710938 464.097656 C 758.710938 493.300781 762.246094 522.839844 769.214844 551.894531 C 783.46875 611.292969 831.230469 657.484375 890.898438 669.566406 C 934.539062 678.386719 978.800781 682.863281 1022.457031 682.863281 C 1066.113281 682.863281 1110.375 678.386719 1154.019531 669.566406 C 1213.683594 657.484375 1261.441406 611.292969 1275.695312 551.890625 C 1282.667969 522.839844 1286.199219 493.300781 1286.199219 464.097656 C 1286.199219 439.476562 1282.03125 398.464844 1259.492188 357.71875 C 1304.664062 260.957031 1293.765625 219.867188 1276.363281 202.472656 Z M 1276.363281 202.472656 " />
        <path style=" stroke:none;fill-rule:nonzero;fill:#ffffff;fill-opacity:1;"
            d="M 1116.007812 458.574219 C 1116.925781 458.722656 1117.828125 458.914062 1118.726562 459.152344 C 1119.621094 459.390625 1120.503906 459.671875 1121.371094 460 C 1122.242188 460.324219 1123.09375 460.691406 1123.925781 461.097656 C 1124.757812 461.507812 1125.566406 461.953125 1126.355469 462.441406 C 1127.144531 462.929688 1127.90625 463.457031 1128.644531 464.019531 C 1129.378906 464.582031 1130.089844 465.179688 1130.765625 465.8125 C 1131.445312 466.445312 1132.089844 467.109375 1132.703125 467.804688 C 1133.316406 468.5 1133.890625 469.222656 1134.433594 469.976562 C 1134.976562 470.730469 1135.480469 471.507812 1135.945312 472.308594 C 1136.410156 473.109375 1136.835938 473.933594 1137.21875 474.777344 C 1137.605469 475.621094 1137.945312 476.480469 1138.246094 477.359375 C 1138.546875 478.234375 1138.800781 479.125 1139.015625 480.027344 C 1139.226562 480.929688 1139.394531 481.839844 1139.515625 482.761719 C 1139.640625 483.679688 1139.71875 484.601562 1139.75 485.527344 C 1139.78125 486.457031 1139.769531 487.382812 1139.710938 488.304688 C 1139.652344 489.230469 1139.546875 490.152344 1139.398438 491.066406 C 1139.25 491.980469 1139.054688 492.886719 1138.816406 493.785156 C 1138.578125 494.679688 1138.296875 495.5625 1137.972656 496.429688 C 1137.648438 497.296875 1137.28125 498.148438 1136.871094 498.980469 C 1136.464844 499.8125 1136.015625 500.625 1135.527344 501.410156 C 1135.039062 502.199219 1134.515625 502.960938 1133.949219 503.699219 C 1133.386719 504.4375 1132.789062 505.144531 1132.15625 505.820312 C 1131.523438 506.5 1130.859375 507.144531 1130.164062 507.757812 C 1129.46875 508.371094 1128.746094 508.945312 1127.992188 509.488281 C 1127.238281 510.03125 1126.460938 510.535156 1125.660156 511 C 1124.859375 511.464844 1124.035156 511.890625 1123.191406 512.273438 C 1122.347656 512.65625 1121.484375 513 1120.609375 513.300781 C 1119.730469 513.597656 1118.839844 513.855469 1117.9375 514.066406 C 1117.035156 514.28125 1116.125 514.449219 1115.207031 514.570312 C 1114.285156 514.691406 1113.363281 514.769531 1112.4375 514.804688 C 1111.511719 514.835938 1110.585938 514.820312 1109.660156 514.761719 C 1108.734375 514.703125 1107.8125 514.601562 1106.898438 514.453125 C 1105.984375 514.300781 1105.078125 514.109375 1104.179688 513.871094 C 1103.285156 513.632812 1102.402344 513.351562 1101.535156 513.027344 C 1100.664062 512.699219 1099.8125 512.335938 1098.980469 511.925781 C 1098.148438 511.519531 1097.339844 511.070312 1096.550781 510.582031 C 1095.761719 510.09375 1095 509.566406 1094.261719 509.003906 C 1093.527344 508.441406 1092.816406 507.84375 1092.140625 507.210938 C 1091.460938 506.578125 1090.816406 505.914062 1090.203125 505.21875 C 1089.589844 504.523438 1089.015625 503.800781 1088.472656 503.046875 C 1087.929688 502.296875 1087.425781 501.519531 1086.960938 500.714844 C 1086.496094 499.914062 1086.070312 499.089844 1085.6875 498.246094 C 1085.300781 497.402344 1084.960938 496.542969 1084.660156 495.664062 C 1084.359375 494.789062 1084.105469 493.898438 1083.890625 492.996094 C 1083.679688 492.09375 1083.511719 491.183594 1083.390625 490.265625 C 1083.265625 489.34375 1083.1875 488.421875 1083.15625 487.496094 C 1083.125 486.570312 1083.136719 485.644531 1083.195312 484.71875 C 1083.253906 483.792969 1083.359375 482.871094 1083.507812 481.957031 C 1083.65625 481.042969 1083.851562 480.136719 1084.089844 479.242188 C 1084.328125 478.34375 1084.609375 477.460938 1084.933594 476.59375 C 1085.257812 475.726562 1085.625 474.875 1086.035156 474.042969 C 1086.441406 473.210938 1086.890625 472.402344 1087.378906 471.613281 C 1087.867188 470.824219 1088.394531 470.0625 1088.957031 469.324219 C 1089.519531 468.589844 1090.117188 467.882812 1090.75 467.203125 C 1091.382812 466.523438 1092.046875 465.878906 1092.742188 465.265625 C 1093.4375 464.652344 1094.160156 464.078125 1094.914062 463.535156 C 1095.667969 462.992188 1096.445312 462.492188 1097.246094 462.027344 C 1098.050781 461.558594 1098.871094 461.136719 1099.714844 460.75 C 1100.558594 460.367188 1101.421875 460.023438 1102.296875 459.726562 C 1103.175781 459.425781 1104.066406 459.167969 1104.96875 458.957031 C 1105.871094 458.746094 1106.78125 458.578125 1107.699219 458.453125 C 1108.621094 458.332031 1109.542969 458.253906 1110.46875 458.222656 C 1111.394531 458.1875 1112.324219 458.203125 1113.246094 458.261719 C 1114.171875 458.320312 1115.09375 458.421875 1116.007812 458.574219 Z M 1116.007812 458.574219 " />
        <path style=" stroke:none;fill-rule:nonzero;fill:#ffffff;fill-opacity:1;"
            d="M 919.46875 468.707031 C 920.050781 469.429688 920.597656 470.175781 921.105469 470.949219 C 921.617188 471.722656 922.085938 472.519531 922.519531 473.339844 C 922.949219 474.164062 923.339844 475 923.691406 475.859375 C 924.039062 476.71875 924.347656 477.59375 924.609375 478.480469 C 924.871094 479.371094 925.089844 480.269531 925.265625 481.179688 C 925.441406 482.09375 925.570312 483.007812 925.65625 483.933594 C 925.738281 484.855469 925.78125 485.78125 925.773438 486.707031 C 925.765625 487.632812 925.714844 488.558594 925.617188 489.480469 C 925.519531 490.402344 925.378906 491.316406 925.191406 492.226562 C 925.003906 493.132812 924.773438 494.03125 924.5 494.914062 C 924.222656 495.800781 923.90625 496.671875 923.546875 497.523438 C 923.183594 498.378906 922.785156 499.214844 922.339844 500.027344 C 921.898438 500.84375 921.417969 501.632812 920.898438 502.402344 C 920.375 503.167969 919.820312 503.910156 919.226562 504.621094 C 918.632812 505.332031 918.007812 506.015625 917.347656 506.667969 C 916.6875 507.316406 915.996094 507.933594 915.277344 508.519531 C 914.554688 509.101562 913.808594 509.648438 913.035156 510.160156 C 912.257812 510.667969 911.460938 511.140625 910.640625 511.570312 C 909.820312 512.003906 908.980469 512.394531 908.121094 512.742188 C 907.261719 513.089844 906.390625 513.398438 905.5 513.660156 C 904.609375 513.921875 903.710938 514.140625 902.800781 514.316406 C 901.890625 514.492188 900.972656 514.621094 900.050781 514.707031 C 899.125 514.789062 898.199219 514.832031 897.273438 514.824219 C 896.347656 514.816406 895.421875 514.765625 894.5 514.667969 C 893.578125 514.570312 892.660156 514.429688 891.753906 514.242188 C 890.84375 514.054688 889.949219 513.824219 889.0625 513.550781 C 888.179688 513.273438 887.308594 512.957031 886.453125 512.597656 C 885.597656 512.238281 884.765625 511.835938 883.949219 511.394531 C 883.136719 510.949219 882.34375 510.46875 881.578125 509.949219 C 880.808594 509.429688 880.070312 508.871094 879.355469 508.277344 C 878.644531 507.6875 877.960938 507.058594 877.308594 506.398438 C 876.660156 505.738281 876.042969 505.050781 875.457031 504.328125 C 874.875 503.609375 874.328125 502.863281 873.816406 502.085938 C 873.308594 501.3125 872.835938 500.515625 872.40625 499.695312 C 871.972656 498.875 871.582031 498.035156 871.234375 497.175781 C 870.882812 496.316406 870.578125 495.441406 870.316406 494.554688 C 870.050781 493.664062 869.832031 492.765625 869.660156 491.855469 C 869.484375 490.945312 869.355469 490.027344 869.269531 489.105469 C 869.183594 488.179688 869.144531 487.257812 869.152344 486.328125 C 869.15625 485.402344 869.210938 484.476562 869.304688 483.554688 C 869.402344 482.632812 869.546875 481.71875 869.730469 480.8125 C 869.917969 479.902344 870.148438 479.007812 870.425781 478.121094 C 870.699219 477.234375 871.019531 476.367188 871.378906 475.511719 C 871.738281 474.65625 872.140625 473.824219 872.582031 473.007812 C 873.027344 472.195312 873.507812 471.402344 874.027344 470.636719 C 874.546875 469.867188 875.105469 469.128906 875.699219 468.414062 C 876.289062 467.703125 876.917969 467.019531 877.578125 466.371094 C 878.238281 465.71875 878.925781 465.101562 879.648438 464.519531 C 880.367188 463.933594 881.117188 463.386719 881.890625 462.878906 C 882.664062 462.367188 883.460938 461.898438 884.28125 461.464844 C 885.105469 461.035156 885.945312 460.644531 886.800781 460.296875 C 887.660156 459.945312 888.535156 459.640625 889.425781 459.375 C 890.3125 459.113281 891.214844 458.894531 892.125 458.71875 C 893.035156 458.542969 893.953125 458.414062 894.875 458.332031 C 895.796875 458.246094 896.722656 458.207031 897.652344 458.210938 C 898.578125 458.21875 899.503906 458.269531 900.425781 458.367188 C 901.347656 458.464844 902.261719 458.605469 903.171875 458.792969 C 904.078125 458.980469 904.976562 459.210938 905.859375 459.484375 C 906.746094 459.761719 907.617188 460.078125 908.472656 460.441406 C 909.324219 460.800781 910.160156 461.203125 910.972656 461.644531 C 911.789062 462.085938 912.582031 462.566406 913.347656 463.089844 C 914.117188 463.609375 914.855469 464.164062 915.570312 464.757812 C 916.28125 465.351562 916.964844 465.976562 917.613281 466.636719 C 918.265625 467.296875 918.882812 467.988281 919.46875 468.707031 Z M 919.46875 468.707031 " />
        <path style=" stroke:none;fill-rule:nonzero;fill:#605c5d;fill-opacity:1;"
            d="M 1111.417969 524.117188 C 1090.683594 524.117188 1073.816406 507.25 1073.816406 486.519531 C 1073.816406 465.792969 1090.683594 448.925781 1111.417969 448.925781 C 1132.152344 448.925781 1149.019531 465.792969 1149.019531 486.519531 C 1149.019531 507.253906 1132.152344 524.117188 1111.417969 524.117188 Z M 1111.417969 467.5 C 1100.929688 467.5 1092.394531 476.03125 1092.394531 486.519531 C 1092.394531 497.007812 1100.929688 505.539062 1111.417969 505.539062 C 1121.910156 505.539062 1130.441406 497.007812 1130.441406 486.519531 C 1130.441406 476.03125 1121.910156 467.5 1111.417969 467.5 Z M 1111.417969 467.5 " />
        <path style=" stroke:none;fill-rule:nonzero;fill:#605c5d;fill-opacity:1;"
            d="M 897.488281 524.117188 C 876.753906 524.117188 859.886719 507.25 859.886719 486.519531 C 859.886719 465.792969 876.757812 448.925781 897.488281 448.925781 C 918.222656 448.925781 935.09375 465.792969 935.09375 486.519531 C 935.089844 507.253906 918.222656 524.117188 897.488281 524.117188 Z M 897.488281 467.5 C 887 467.5 878.464844 476.03125 878.464844 486.519531 C 878.464844 497.007812 887 505.539062 897.488281 505.539062 C 907.980469 505.539062 916.511719 497.007812 916.511719 486.519531 C 916.511719 476.03125 907.980469 467.5 897.488281 467.5 Z M 897.488281 467.5 " />
        <path style=" stroke:none;fill-rule:nonzero;fill:#91a2b5;fill-opacity:1;"
            d="M 1183.058594 538.90625 L 1138.324219 538.90625 C 1132.050781 538.90625 1126.96875 533.824219 1126.96875 527.554688 C 1126.96875 521.285156 1132.054688 516.203125 1138.324219 516.203125 L 1183.058594 516.203125 C 1189.332031 516.203125 1194.414062 521.285156 1194.414062 527.554688 C 1194.414062 533.824219 1189.332031 538.90625 1183.058594 538.90625 Z M 1183.058594 538.90625 " />
        <path style=" stroke:none;fill-rule:nonzero;fill:#91a2b5;fill-opacity:1;"
            d="M 1174.925781 580.925781 C 1173.617188 580.925781 1172.285156 580.699219 1170.984375 580.21875 L 1134.382812 566.664062 C 1128.503906 564.488281 1125.5 557.957031 1127.679688 552.078125 C 1129.855469 546.195312 1136.390625 543.199219 1142.269531 545.375 L 1178.871094 558.925781 C 1184.75 561.105469 1187.753906 567.636719 1185.574219 573.515625 C 1183.878906 578.089844 1179.539062 580.925781 1174.925781 580.925781 Z M 1174.925781 580.925781 " />
        <path style=" stroke:none;fill-rule:nonzero;fill:#91a2b5;fill-opacity:1;"
            d="M 870.585938 538.90625 L 825.847656 538.90625 C 819.578125 538.90625 814.496094 533.824219 814.496094 527.554688 C 814.496094 521.285156 819.578125 516.203125 825.847656 516.203125 L 870.585938 516.203125 C 876.855469 516.203125 881.9375 521.285156 881.9375 527.554688 C 881.9375 533.824219 876.855469 538.90625 870.585938 538.90625 Z M 870.585938 538.90625 " />
        <path style=" stroke:none;fill-rule:nonzero;fill:#91a2b5;fill-opacity:1;"
            d="M 833.984375 580.925781 C 829.371094 580.925781 825.03125 578.09375 823.335938 573.515625 C 821.15625 567.636719 824.160156 561.105469 830.039062 558.925781 L 866.640625 545.375 C 872.523438 543.203125 879.054688 546.195312 881.230469 552.078125 C 883.410156 557.957031 880.40625 564.488281 874.527344 566.664062 L 837.925781 580.21875 C 836.625 580.695312 835.292969 580.925781 833.984375 580.925781 Z M 833.984375 580.925781 " />
        <path style=" stroke:none;fill-rule:nonzero;fill:#ffffff;fill-opacity:1;"
            d="M 1093.429688 434.660156 L 1069.960938 434.660156 C 1063.6875 434.660156 1058.605469 429.578125 1058.605469 423.308594 C 1058.605469 417.039062 1063.6875 411.957031 1069.960938 411.957031 L 1093.429688 411.957031 C 1099.699219 411.957031 1104.78125 417.039062 1104.78125 423.308594 C 1104.78125 429.578125 1099.699219 434.660156 1093.429688 434.660156 Z M 1093.429688 434.660156 " />
        <path style=" stroke:none;fill-rule:nonzero;fill:#ffffff;fill-opacity:1;"
            d="M 938.949219 434.660156 L 915.480469 434.660156 C 909.207031 434.660156 904.125 429.578125 904.125 423.308594 C 904.125 417.039062 909.207031 411.957031 915.480469 411.957031 L 938.949219 411.957031 C 945.21875 411.957031 950.300781 417.039062 950.300781 423.308594 C 950.300781 429.578125 945.21875 434.660156 938.949219 434.660156 Z M 938.949219 434.660156 " />
        <path style=" stroke:none;fill-rule:nonzero;fill:#678490;fill-opacity:1;"
            d="M 1061.074219 522.226562 C 1061.074219 529.316406 1059.023438 536.011719 1055.3125 541.992188 C 1051.675781 547.894531 1046.382812 553.113281 1040.007812 557.253906 L 1040.007812 584.328125 C 1040.007812 593.542969 1032.554688 601 1023.300781 601 C 1014.082031 601 1006.625 593.546875 1006.625 584.328125 L 1006.625 567.480469 C 1005.511719 567.550781 1004.394531 567.625 1003.242188 567.625 C 979.910156 567.625 959.8125 556.75 950.667969 541.089844 C 947.320312 535.367188 945.449219 528.957031 945.449219 522.226562 C 945.449219 497.128906 971.339844 499.507812 1003.242188 499.507812 C 1035.183594 499.507812 1061.074219 497.128906 1061.074219 522.226562 Z M 1061.074219 522.226562 " />
        <path style=" stroke:none;fill-rule:nonzero;fill:#fd80a6;fill-opacity:1;"
            d="M 1055.3125 541.992188 C 1051.675781 547.894531 1046.382812 553.113281 1040.007812 557.253906 L 1040.007812 584.328125 C 1040.007812 593.542969 1032.554688 601 1023.300781 601 C 1014.082031 601 1006.625 593.546875 1006.625 584.328125 L 1006.625 567.480469 C 1005.511719 567.550781 1004.394531 567.625 1003.242188 567.625 C 979.910156 567.625 959.8125 556.75 950.667969 541.089844 C 970.582031 530.976562 1008.96875 518.949219 1055.3125 541.992188 Z M 1055.3125 541.992188 " />
        <path style=" stroke:none;fill-rule:nonzero;fill:#678490;fill-opacity:1;"
            d="M 1062.355469 500.734375 C 1051.84375 490.289062 1033.871094 490.042969 1012.984375 490.164062 L 1013.328125 482.660156 L 1017.019531 482.660156 C 1023.289062 482.660156 1028.371094 477.578125 1028.371094 471.308594 C 1028.371094 465.039062 1023.289062 459.957031 1017.019531 459.957031 L 991.890625 459.957031 C 985.617188 459.957031 980.535156 465.039062 980.535156 471.308594 C 980.535156 477.578125 985.617188 482.660156 991.890625 482.660156 L 994.730469 482.660156 L 994.386719 490.167969 C 973.128906 490.035156 954.820312 490.148438 944.167969 500.730469 C 938.859375 506.007812 936.167969 513.234375 936.167969 522.210938 C 936.167969 550.746094 963.105469 574.242188 997.332031 576.703125 L 997.332031 584.324219 C 997.332031 598.648438 1008.988281 610.300781 1023.316406 610.300781 C 1037.644531 610.300781 1049.300781 598.648438 1049.300781 584.324219 L 1049.300781 562.074219 C 1062.746094 551.777344 1070.355469 537.488281 1070.355469 522.210938 C 1070.355469 513.234375 1067.664062 506.007812 1062.355469 500.734375 Z M 1034.960938 549.472656 C 1032.320312 551.183594 1030.722656 554.117188 1030.722656 557.265625 L 1030.722656 584.328125 C 1030.722656 588.410156 1027.402344 591.730469 1023.316406 591.730469 C 1019.234375 591.730469 1015.910156 588.410156 1015.910156 584.328125 L 1015.910156 567.496094 C 1015.910156 564.960938 1014.875 562.535156 1013.042969 560.785156 C 1011.308594 559.128906 1009.007812 558.210938 1006.621094 558.210938 C 1006.480469 558.210938 1006.34375 558.214844 1006.203125 558.21875 L 1005.1875 558.269531 C 1004.546875 558.304688 1003.910156 558.34375 1003.261719 558.34375 C 976.507812 558.34375 954.746094 542.136719 954.746094 522.214844 C 954.746094 517.019531 956.183594 514.988281 957.265625 513.910156 C 962.65625 508.554688 978.65625 508.660156 995.589844 508.753906 C 997.988281 508.769531 1000.453125 508.777344 1002.921875 508.777344 C 1003.039062 508.78125 1003.152344 508.785156 1003.269531 508.785156 C 1003.292969 508.785156 1003.316406 508.777344 1003.34375 508.777344 C 1005.894531 508.777344 1008.449219 508.769531 1010.933594 508.753906 C 1027.871094 508.648438 1043.867188 508.550781 1049.257812 513.90625 C 1050.339844 514.984375 1051.777344 517.011719 1051.777344 522.214844 C 1051.777344 532.613281 1045.648438 542.546875 1034.960938 549.472656 Z M 1034.960938 549.472656 " />
        <g clip-rule="nonzero" clip-path="url(#69addc2bd2)">
            <path style=" stroke:none;fill-rule:nonzero;fill:#b78e98;fill-opacity:1;"
                d="M 810.640625 1061.828125 C 742.996094 1061.828125 679.222656 1050.78125 631.070312 1030.714844 C 579.761719 1009.332031 551.503906 979.683594 551.503906 947.222656 L 551.503906 834.609375 C 551.503906 828.335938 556.589844 823.257812 562.859375 823.257812 C 569.128906 823.257812 574.210938 828.339844 574.210938 834.609375 L 574.210938 947.222656 C 574.210938 969.59375 598.121094 992.390625 639.804688 1009.757812 C 685.253906 1028.699219 745.921875 1039.128906 810.640625 1039.128906 C 875.359375 1039.128906 936.027344 1028.695312 981.476562 1009.757812 C 1023.160156 992.390625 1047.066406 969.597656 1047.066406 947.222656 L 1047.066406 834.609375 C 1047.066406 828.335938 1052.148438 823.257812 1058.421875 823.257812 C 1064.691406 823.257812 1069.773438 828.339844 1069.773438 834.609375 L 1069.773438 947.222656 C 1069.773438 979.683594 1041.519531 1009.335938 990.210938 1030.714844 C 942.058594 1050.78125 878.285156 1061.828125 810.640625 1061.828125 Z M 810.640625 1061.828125 " />
        </g>
        <path style=" stroke:none;fill-rule:nonzero;fill:#ffff9d;fill-opacity:1;"
            d="M 1056.308594 696.078125 L 1056.117188 696.078125 C 1039.773438 645.644531 936.136719 606.753906 810.644531 606.753906 C 685.148438 606.753906 581.515625 645.644531 565.171875 696.078125 L 564.988281 696.078125 C 564.988281 696.078125 515.578125 813.890625 558.257812 833.007812 C 579.597656 842.566406 593.644531 819.164062 626.152344 820.808594 C 668.027344 822.925781 670.046875 902.050781 713.59375 901.117188 C 758.5 900.152344 746.039062 841.054688 810.644531 841.054688 C 875.253906 841.054688 862.792969 900.152344 907.699219 901.117188 C 951.246094 902.050781 953.265625 822.925781 995.140625 820.808594 C 1027.644531 819.164062 1041.695312 842.566406 1063.035156 833.007812 C 1105.714844 813.890625 1056.308594 696.078125 1056.308594 696.078125 Z M 1056.308594 696.078125 " />
        <path style=" stroke:none;fill-rule:nonzero;fill:#ffcc6b;fill-opacity:1;"
            d="M 810.644531 788.632812 C 731.492188 788.632812 678.570312 773.996094 648.117188 761.722656 C 610.171875 746.425781 587.515625 727.097656 587.515625 710.019531 C 587.515625 703.75 592.601562 698.667969 598.871094 698.667969 C 605.0625 698.667969 610.09375 703.621094 610.222656 709.78125 C 612.664062 719.910156 671.597656 765.929688 810.644531 765.929688 C 949.691406 765.929688 1008.621094 719.914062 1011.0625 709.78125 C 1011.191406 703.621094 1016.226562 698.667969 1022.414062 698.667969 C 1028.6875 698.667969 1033.769531 703.75 1033.769531 710.019531 C 1033.769531 727.097656 1011.117188 746.425781 973.167969 761.722656 C 942.714844 774 889.796875 788.632812 810.644531 788.632812 Z M 810.644531 788.632812 " />
        <path style=" stroke:none;fill-rule:nonzero;fill:#ffcc6b;fill-opacity:1;"
            d="M 908.527344 912.476562 C 908.171875 912.476562 907.816406 912.472656 907.457031 912.460938 C 881.335938 911.902344 870.09375 895.699219 860.175781 881.402344 C 849.378906 865.84375 840.058594 852.40625 810.644531 852.40625 C 781.234375 852.40625 771.914062 865.84375 761.117188 881.402344 C 751.199219 895.699219 739.957031 911.90625 713.835938 912.460938 C 684.839844 913.125 670.925781 888.316406 658.671875 866.460938 C 646.949219 845.558594 638.875 832.816406 625.578125 832.144531 C 612.703125 831.484375 603.152344 835.660156 593.914062 839.6875 C 582.390625 844.710938 569.332031 850.40625 553.613281 843.363281 C 530.316406 832.929688 523.894531 803.171875 534.527344 754.929688 C 541.683594 722.460938 553.996094 692.929688 554.515625 691.6875 C 554.679688 691.296875 554.863281 690.917969 555.066406 690.554688 C 575.207031 635.296875 681.957031 595.398438 810.640625 595.398438 C 939.316406 595.398438 1046.058594 635.285156 1066.210938 690.542969 C 1066.421875 690.910156 1066.609375 691.292969 1066.773438 691.6875 C 1067.296875 692.929688 1079.605469 722.457031 1086.761719 754.929688 C 1097.394531 803.175781 1090.976562 832.929688 1067.679688 843.363281 C 1051.957031 850.40625 1038.902344 844.710938 1027.375 839.6875 C 1018.140625 835.660156 1008.597656 831.488281 995.710938 832.144531 C 982.417969 832.816406 974.34375 845.558594 962.621094 866.460938 C 950.519531 888.042969 936.820312 912.472656 908.527344 912.476562 Z M 810.644531 829.703125 C 851.941406 829.703125 867.484375 852.105469 878.832031 868.464844 C 888.402344 882.257812 894.042969 889.46875 907.941406 889.765625 C 908.109375 889.769531 908.273438 889.769531 908.4375 889.769531 C 922.5 889.769531 930.835938 876.722656 942.816406 855.359375 C 954.519531 834.484375 967.785156 810.824219 994.566406 809.46875 C 1012.769531 808.558594 1025.902344 814.277344 1036.457031 818.878906 C 1047.121094 823.53125 1052.105469 825.46875 1058.394531 822.648438 C 1080.277344 812.84375 1064.445312 745.683594 1046.558594 702.207031 C 1046.042969 701.402344 1045.621094 700.519531 1045.316406 699.574219 C 1030.515625 653.890625 927.433594 618.101562 810.644531 618.101562 C 693.855469 618.101562 590.777344 653.890625 575.976562 699.574219 C 575.671875 700.507812 575.257812 701.375 574.75 702.175781 C 556.859375 745.652344 541.011719 812.839844 562.902344 822.644531 C 569.191406 825.460938 574.175781 823.527344 584.84375 818.875 C 595.394531 814.277344 608.53125 808.558594 626.730469 809.46875 C 653.515625 810.824219 666.78125 834.484375 678.484375 855.359375 C 690.601562 876.972656 698.996094 889.996094 713.351562 889.765625 C 727.253906 889.464844 732.894531 882.253906 742.464844 868.460938 C 753.8125 852.105469 769.351562 829.703125 810.644531 829.703125 Z M 810.644531 829.703125 " />
        <path style=" stroke:none;fill-rule:nonzero;fill:#ffffff;fill-opacity:1;"
            d="M 818.582031 567.675781 C 799.640625 567.675781 784.285156 577.808594 784.285156 590.308594 L 784.285156 687.386719 C 784.285156 699.886719 799.640625 710.019531 818.582031 710.019531 C 837.519531 710.019531 852.878906 699.886719 852.878906 687.386719 L 852.878906 590.308594 C 852.878906 577.808594 837.519531 567.675781 818.582031 567.675781 Z M 818.582031 567.675781 " />
        <path style=" stroke:none;fill-rule:nonzero;fill:#e3e3e3;fill-opacity:1;"
            d="M 818.582031 721.371094 C 792.984375 721.371094 772.933594 706.445312 772.933594 687.382812 L 772.933594 590.308594 C 772.933594 571.25 792.984375 556.320312 818.582031 556.320312 C 844.179688 556.320312 864.230469 571.25 864.230469 590.308594 L 864.230469 687.382812 C 864.230469 706.445312 844.179688 721.371094 818.582031 721.371094 Z M 818.582031 579.027344 C 804.792969 579.027344 795.640625 585.816406 795.640625 590.308594 L 795.640625 687.386719 C 795.640625 691.878906 804.789062 698.671875 818.582031 698.671875 C 832.371094 698.671875 841.523438 691.878906 841.523438 687.386719 L 841.523438 590.308594 C 841.523438 585.816406 832.371094 579.027344 818.582031 579.027344 Z M 818.582031 579.027344 " />
        <path style=" stroke:none;fill-rule:nonzero;fill:#fd80a6;fill-opacity:1;"
            d="M 861.535156 500.316406 L 835.695312 451.097656 C 828.457031 437.308594 808.710938 437.308594 801.46875 451.097656 L 775.628906 500.316406 C 765.761719 519.113281 769.265625 542.144531 784.28125 557.15625 C 803.226562 576.097656 833.941406 576.097656 852.886719 557.15625 C 867.898438 542.144531 871.402344 519.113281 861.535156 500.316406 Z M 861.535156 500.316406 " />
        <path style=" stroke:none;fill-rule:nonzero;fill:#ffff9d;fill-opacity:1;"
            d="M 840.617188 528.832031 L 827.359375 503.582031 C 823.644531 496.507812 813.519531 496.507812 809.804688 503.582031 L 796.546875 528.832031 C 791.488281 538.472656 793.285156 550.285156 800.984375 557.988281 C 810.703125 567.703125 826.460938 567.703125 836.175781 557.988281 C 843.878906 550.285156 845.675781 538.472656 840.617188 528.832031 Z M 840.617188 528.832031 " />
        <path style=" stroke:none;fill-rule:nonzero;fill:#f6608e;fill-opacity:1;"
            d="M 818.582031 586.933594 C 812.3125 586.933594 807.226562 581.851562 807.226562 575.582031 L 807.226562 553.152344 C 807.226562 546.882812 812.3125 541.800781 818.582031 541.800781 C 824.851562 541.800781 829.933594 546.882812 829.933594 553.152344 L 829.933594 575.582031 C 829.933594 581.847656 824.851562 586.933594 818.582031 586.933594 Z M 818.582031 586.933594 " />
        <path style=" stroke:none;fill-rule:nonzero;fill:#b1b9c6;fill-opacity:1;"
            d="M 1163.160156 680.398438 C 1190.132812 823.011719 1049.855469 909.625 1011.457031 876.949219 C 948.472656 823.347656 1101.546875 758.410156 1109.667969 713.808594 Z M 1163.160156 680.398438 " />
        <path style=" stroke:none;fill-rule:nonzero;fill:#678490;fill-opacity:1;"
            d="M 1033.316406 895.144531 C 1021.707031 895.144531 1011.636719 892 1004.105469 885.589844 C 991.34375 874.726562 984.898438 862.300781 984.949219 848.648438 C 985.066406 817.597656 1018.804688 789.308594 1051.429688 761.949219 C 1072.414062 744.355469 1096.199219 724.414062 1098.492188 711.789062 C 1099.613281 705.625 1105.515625 701.539062 1111.691406 702.648438 C 1117.859375 703.769531 1121.953125 709.679688 1120.832031 715.847656 C 1117.074219 736.539062 1093.417969 756.375 1066.023438 779.34375 C 1038.699219 802.253906 1007.734375 828.214844 1007.65625 848.730469 C 1007.632812 855.480469 1011.285156 861.882812 1018.824219 868.300781 C 1027.84375 875.976562 1051.910156 873.925781 1080.46875 855.152344 C 1128.753906 823.410156 1175.023438 753.390625 1146.519531 660.511719 C 1144.679688 654.519531 1148.050781 648.171875 1154.042969 646.332031 C 1160.039062 644.496094 1166.390625 647.859375 1168.230469 653.855469 C 1182.648438 700.84375 1180.835938 747.824219 1162.984375 789.71875 C 1148.34375 824.082031 1123.46875 854.054688 1092.941406 874.121094 C 1071.851562 887.988281 1050.832031 895.144531 1033.316406 895.144531 Z M 1033.316406 895.144531 " />
        <path style=" stroke:none;fill-rule:nonzero;fill:#ffbf8c;fill-opacity:1;"
            d="M 532.496094 815.464844 L 513.167969 820.773438 C 490.53125 827.015625 467.144531 813.6875 460.929688 791.054688 L 455.621094 771.730469 C 453.875 765.390625 453.6875 758.992188 454.78125 752.96875 C 444.382812 712.695312 445.351562 691.40625 463.523438 686.414062 C 478.730469 682.199219 494.121094 694 501.929688 714.945312 L 504.675781 714.195312 C 527.3125 707.980469 550.699219 721.28125 556.914062 743.914062 L 562.222656 763.238281 C 568.4375 785.871094 555.132812 809.253906 532.496094 815.464844 Z M 532.496094 815.464844 " />
        <path style=" stroke:none;fill-rule:nonzero;fill:#ff9d6f;fill-opacity:1;"
            d="M 573.171875 760.242188 L 567.863281 740.910156 C 560.621094 714.558594 534.882812 698.167969 508.507812 701.855469 C 497.476562 680.792969 479.039062 670.328125 460.515625 675.464844 C 426.644531 684.773438 437.117188 729.804688 443.199219 753.488281 C 442.285156 760.402344 442.707031 767.605469 444.667969 774.738281 L 449.976562 794.066406 C 456.535156 817.945312 478.273438 833.660156 501.921875 833.660156 C 506.628906 833.660156 511.417969 833.035156 516.171875 831.730469 L 535.503906 826.421875 C 549.375 822.613281 560.933594 813.628906 568.046875 801.128906 C 575.160156 788.628906 576.980469 774.109375 573.171875 760.242188 Z M 466.558594 697.347656 C 472.941406 695.582031 479.972656 699.65625 485.527344 707.679688 L 482.335938 708.558594 C 473.699219 710.929688 466.144531 715.296875 460 721.007812 C 457.664062 699.804688 463.796875 698.109375 466.558594 697.347656 Z M 548.3125 789.902344 C 544.195312 797.128906 537.511719 802.324219 529.488281 804.527344 L 510.15625 809.835938 C 502.132812 812.042969 493.730469 810.988281 486.5 806.875 C 479.269531 802.761719 474.074219 796.078125 471.871094 788.058594 L 466.5625 768.726562 C 464.355469 760.707031 465.410156 752.308594 469.523438 745.078125 C 473.640625 737.847656 480.324219 732.652344 488.347656 730.449219 L 507.679688 725.140625 C 510.421875 724.386719 513.207031 724.015625 515.976562 724.015625 C 521.304688 724.015625 526.574219 725.398438 531.332031 728.105469 C 538.5625 732.21875 543.757812 738.902344 545.960938 746.921875 L 551.269531 766.25 C 553.480469 774.273438 552.425781 782.671875 548.3125 789.902344 Z M 548.3125 789.902344 " />
        <path style=" stroke:none;fill-rule:nonzero;fill:#ffffff;fill-opacity:1;"
            d="M 607.578125 444.1875 C 602.949219 444.1875 598.597656 441.332031 596.914062 436.734375 C 594.761719 430.84375 597.789062 424.328125 603.675781 422.171875 L 625.71875 414.109375 C 631.605469 411.957031 638.128906 414.984375 640.28125 420.871094 C 642.4375 426.757812 639.410156 433.277344 633.519531 435.429688 L 611.480469 443.492188 C 610.191406 443.960938 608.871094 444.1875 607.578125 444.1875 Z M 607.578125 444.1875 " />
        <path style=" stroke:none;fill-rule:nonzero;fill:#ffffff;fill-opacity:1;"
            d="M 462.496094 497.242188 C 457.867188 497.242188 453.515625 494.390625 451.832031 489.789062 C 449.679688 483.902344 452.707031 477.382812 458.597656 475.230469 L 480.636719 467.167969 C 486.523438 465.015625 493.046875 468.042969 495.203125 473.933594 C 497.355469 479.820312 494.328125 486.335938 488.4375 488.492188 L 466.398438 496.550781 C 465.109375 497.023438 463.792969 497.242188 462.496094 497.242188 Z M 462.496094 497.242188 " />
        <path style=" stroke:none;fill-rule:nonzero;fill:#6ee3ce;fill-opacity:1;"
            d="M 420.25 347.929688 L 425.988281 185.492188 C 426.644531 166.851562 449.820312 158.679688 462.03125 172.785156 L 568.410156 295.691406 C 541.925781 351.023438 475.589844 374.410156 420.25 347.929688 Z M 420.25 347.929688 " />
        <path style=" stroke:none;fill-rule:nonzero;fill:#ffffff;fill-opacity:1;"
            d="M 568.410156 295.699219 L 507.121094 224.878906 C 456.71875 242.648438 425.519531 199.679688 425.519531 199.679688 L 425.488281 199.664062 L 422.980469 270.878906 C 422.980469 270.878906 487.003906 324.402344 568.410156 295.699219 Z M 568.410156 295.699219 " />
        <path style=" stroke:none;fill-rule:nonzero;fill:#4ecab3;fill-opacity:1;"
            d="M 468.015625 370.15625 C 450.316406 370.15625 432.351562 366.304688 415.351562 358.167969 C 411.277344 356.21875 408.746094 352.042969 408.90625 347.53125 L 414.640625 185.09375 C 415.105469 171.902344 423.453125 160.542969 435.902344 156.15625 C 448.355469 151.761719 461.976562 155.378906 470.617188 165.359375 L 576.996094 288.265625 C 579.953125 291.683594 580.601562 296.523438 578.652344 300.59375 C 557.640625 344.480469 513.714844 370.15625 468.015625 370.15625 Z M 431.871094 340.609375 C 477.773438 358.605469 530.308594 340.082031 554.769531 297.277344 L 453.445312 180.210938 C 449.644531 175.824219 444.835938 177.074219 443.453125 177.5625 C 442.070312 178.050781 437.539062 180.09375 437.335938 185.894531 Z M 431.871094 340.609375 " />
        <path style=" stroke:none;fill-rule:nonzero;fill:#ffffff;fill-opacity:1;"
            d="M 938.46875 265.550781 L 997.910156 114.265625 C 1004.730469 96.90625 1029.308594 96.90625 1036.128906 114.265625 L 1095.570312 265.550781 C 1052.1875 308.925781 981.847656 308.925781 938.46875 265.550781 Z M 938.46875 265.550781 " />
        <path style=" stroke:none;fill-rule:nonzero;fill:#fd80a6;fill-opacity:1;"
            d="M 1095.566406 265.558594 L 1061.320312 178.390625 C 1007.878906 178.390625 992.75 127.496094 992.75 127.496094 L 992.71875 127.464844 L 966.667969 193.796875 C 966.667969 193.792969 1009.246094 265.558594 1095.566406 265.558594 Z M 1095.566406 265.558594 " />
        <g clip-rule="nonzero" clip-path="url(#185a6d38b5)">
            <path style=" stroke:none;fill-rule:nonzero;fill:#e3e3e3;fill-opacity:1;"
                d="M 1017.019531 309.375 C 985.664062 309.375 954.308594 297.445312 930.441406 273.578125 C 927.246094 270.386719 926.25 265.605469 927.898438 261.402344 L 987.339844 110.117188 C 992.167969 97.835938 1003.816406 89.898438 1017.019531 89.898438 C 1030.21875 89.898438 1041.867188 97.835938 1046.695312 110.117188 L 1106.132812 261.402344 C 1107.785156 265.605469 1106.789062 270.386719 1103.597656 273.578125 C 1079.726562 297.441406 1048.371094 309.375 1017.019531 309.375 Z M 951.863281 262.511719 C 989.167969 294.746094 1044.875 294.742188 1082.175781 262.511719 L 1025.5625 118.417969 C 1023.4375 113.019531 1018.488281 112.597656 1017.019531 112.597656 C 1015.554688 112.597656 1010.601562 113.019531 1008.480469 118.417969 Z M 951.863281 262.511719 " />
        </g>
    </g>
</svg>