<svg xmlns="http://www.w3.org/2000/svg" xmlns:xlink="http://www.w3.org/1999/xlink" zoomAndPan="magnify" width="500" height="100"
    viewBox="230 400 700 500" version="1.2">
    <defs>
        <clipPath id="curve">
            <path
                d="M 243.078125 420.902344 L 566.921875 420.902344 L 566.921875 464.382812 L 243.078125 464.382812 Z M 243.078125 420.902344 " />
        </clipPath>
    </defs>
    <g id="curve-path">
        <g clip-rule="nonzero" clip-path="url(#curve)">
            <path style=" stroke:none;fill-rule:nonzero;fill:#ffffff;fill-opacity:1;"
                d="M 298.3125 443.574219 C 295 440.957031 291.878906 437.800781 288.496094 434.742188 C 286.800781 433.214844 285.042969 431.703125 283.128906 430.328125 C 281.21875 428.957031 279.144531 427.714844 276.894531 426.808594 C 274.648438 425.890625 272.207031 425.332031 269.78125 425.285156 C 268.570312 425.242188 267.363281 425.351562 266.179688 425.527344 C 264.996094 425.726562 263.847656 426.03125 262.742188 426.417969 C 260.546875 427.222656 258.558594 428.359375 256.824219 429.671875 C 255.074219 430.976562 253.570312 432.449219 252.226562 433.953125 C 250.15625 436.296875 248.636719 438.5625 247.445312 440.554688 C 246.261719 442.554688 245.394531 444.304688 244.769531 445.75 C 243.519531 448.644531 243.167969 450.3125 243.476562 450.667969 C 243.796875 451.03125 244.789062 450.070312 246.515625 447.875 C 247.363281 446.777344 248.433594 445.394531 249.722656 443.726562 C 251.015625 442.078125 252.550781 440.183594 254.4375 438.207031 C 257.148438 435.390625 260.261719 432.859375 263.75 431.546875 C 267.207031 430.222656 271.066406 430.222656 274.722656 431.667969 C 276.5625 432.386719 278.382812 433.429688 280.171875 434.6875 C 281.960938 435.957031 283.726562 437.417969 285.5 438.972656 C 287.277344 440.523438 289.070312 442.175781 290.964844 443.816406 C 292.863281 445.449219 294.839844 447.097656 297.042969 448.585938 C 297.601562 448.953125 298.148438 449.328125 298.738281 449.667969 C 299.03125 449.839844 299.316406 450.019531 299.613281 450.183594 L 300.519531 450.667969 C 300.816406 450.835938 301.128906 450.980469 301.445312 451.125 L 302.390625 451.5625 L 303.375 451.945312 L 303.863281 452.136719 L 304.371094 452.300781 L 305.386719 452.617188 C 305.730469 452.710938 306.078125 452.785156 306.429688 452.871094 C 307.121094 453.054688 307.839844 453.128906 308.550781 453.242188 C 308.90625 453.292969 309.265625 453.300781 309.628906 453.332031 C 309.988281 453.347656 310.34375 453.394531 310.707031 453.382812 C 311.425781 453.394531 312.148438 453.355469 312.863281 453.296875 C 315.738281 453.039062 318.496094 452.128906 320.953125 450.871094 C 323.421875 449.613281 325.617188 448.03125 327.636719 446.34375 C 331.667969 442.949219 335.050781 439.121094 338.445312 435.527344 C 338.875 435.070312 339.28125 434.652344 339.695312 434.230469 C 340.113281 433.808594 340.542969 433.398438 340.976562 432.996094 C 341.851562 432.195312 342.746094 431.425781 343.675781 430.703125 C 345.519531 429.25 347.480469 427.976562 349.511719 426.953125 C 351.839844 425.78125 354.25 424.964844 356.59375 424.710938 C 358.9375 424.449219 361.175781 424.777344 363.097656 425.726562 C 364.058594 426.203125 364.960938 426.808594 365.738281 427.539062 C 366.519531 428.265625 367.214844 429.097656 367.820312 430.035156 C 369.035156 431.902344 369.921875 434.128906 370.707031 436.496094 C 371.496094 438.867188 372.1875 441.398438 373.074219 444.003906 C 373.515625 445.308594 374.015625 446.636719 374.613281 447.972656 C 374.910156 448.644531 375.246094 449.3125 375.585938 449.949219 C 375.914062 450.597656 376.289062 451.226562 376.664062 451.859375 C 377.4375 453.117188 378.269531 454.359375 379.246094 455.539062 C 380.203125 456.71875 381.261719 457.867188 382.460938 458.90625 C 383.652344 459.953125 384.960938 460.921875 386.402344 461.746094 C 387.851562 462.5625 389.425781 463.238281 391.097656 463.703125 C 391.71875 463.894531 392.363281 464.007812 392.996094 464.140625 L 393.960938 464.273438 L 394.441406 464.332031 L 394.925781 464.359375 C 396.21875 464.472656 397.511719 464.390625 398.773438 464.242188 C 401.292969 463.886719 403.6875 463.09375 405.792969 461.957031 C 407.910156 460.835938 409.777344 459.4375 411.425781 457.910156 C 411.851562 457.535156 412.230469 457.128906 412.621094 456.734375 C 413.019531 456.34375 413.375 455.925781 413.742188 455.519531 C 414.472656 454.703125 415.160156 453.8125 415.792969 452.933594 C 418.304688 449.371094 419.976562 445.679688 421.664062 442.265625 C 422.503906 440.554688 423.34375 438.902344 424.261719 437.347656 C 425.15625 435.8125 426.160156 434.382812 427.316406 433.082031 C 428.46875 431.785156 429.753906 430.617188 431.15625 429.683594 C 432.558594 428.757812 434.070312 428.03125 435.652344 427.726562 C 436.046875 427.671875 436.441406 427.5625 436.839844 427.558594 L 437.441406 427.515625 C 437.640625 427.507812 437.839844 427.53125 438.042969 427.535156 C 438.242188 427.550781 438.445312 427.535156 438.648438 427.566406 L 439.257812 427.664062 L 439.871094 427.757812 L 440.472656 427.925781 C 442.070312 428.367188 443.597656 429.1875 444.992188 430.292969 C 446.390625 431.394531 447.65625 432.757812 448.804688 434.253906 C 449.957031 435.753906 450.988281 437.40625 451.945312 439.125 C 452.425781 439.988281 452.890625 440.867188 453.34375 441.765625 C 453.792969 442.679688 454.246094 443.601562 454.703125 444.527344 C 455.648438 446.429688 456.714844 448.3125 457.953125 450.125 C 459.863281 452.871094 462.046875 455.367188 464.691406 457.300781 C 467.308594 459.234375 470.410156 460.621094 473.730469 460.917969 C 477.039062 461.25 480.457031 460.347656 483.214844 458.542969 C 484.601562 457.644531 485.832031 456.53125 486.878906 455.289062 C 487.835938 454.128906 488.738281 452.953125 489.570312 451.746094 C 492.125 448.082031 494.285156 444.183594 496.617188 440.4375 C 497.78125 438.5625 498.976562 436.726562 500.269531 435.011719 C 500.597656 434.59375 500.921875 434.167969 501.257812 433.757812 C 501.601562 433.363281 501.945312 432.960938 502.289062 432.5625 C 502.644531 432.195312 503 431.8125 503.359375 431.453125 C 503.71875 431.113281 504.082031 430.769531 504.464844 430.460938 C 505.222656 429.839844 506.015625 429.28125 506.839844 428.824219 C 507.667969 428.367188 508.523438 428.011719 509.394531 427.761719 C 511.140625 427.253906 512.953125 427.195312 514.714844 427.597656 C 516.476562 427.992188 518.1875 428.851562 519.707031 430.0625 C 521.230469 431.28125 522.546875 432.824219 523.632812 434.613281 C 524.816406 436.550781 525.875 438.628906 526.929688 440.800781 C 527.984375 442.96875 529.035156 445.230469 530.257812 447.476562 C 531.476562 449.722656 532.882812 451.953125 534.566406 453.953125 C 534.996094 454.449219 535.441406 454.929688 535.871094 455.410156 C 536.328125 455.867188 536.796875 456.3125 537.261719 456.757812 C 537.738281 457.183594 538.234375 457.585938 538.71875 457.988281 C 539.21875 458.386719 539.761719 458.78125 540.300781 459.128906 C 542.457031 460.539062 544.710938 461.480469 546.925781 462.085938 C 548.035156 462.394531 549.136719 462.605469 550.214844 462.742188 C 551.292969 462.886719 552.351562 462.945312 553.386719 462.929688 C 555.445312 462.910156 557.386719 462.574219 559.105469 462.003906 C 560.824219 461.417969 562.3125 460.605469 563.464844 459.648438 C 564.621094 458.695312 565.402344 457.695312 565.890625 456.832031 C 566.378906 455.957031 566.613281 455.238281 566.699219 454.726562 C 566.851562 453.683594 566.566406 453.515625 565.960938 454.023438 C 565.808594 454.152344 565.648438 454.328125 565.429688 454.523438 C 565.21875 454.722656 565 454.964844 564.710938 455.214844 C 564.167969 455.730469 563.457031 456.335938 562.515625 456.898438 C 561.585938 457.464844 560.410156 457.96875 559.003906 458.316406 C 557.59375 458.65625 555.945312 458.816406 554.105469 458.710938 C 552.101562 458.585938 550.039062 458.152344 548.046875 457.421875 C 546.054688 456.683594 544.125 455.640625 542.453125 454.277344 C 540.75 452.859375 539.171875 451.183594 537.832031 449.25 C 536.480469 447.324219 535.308594 445.171875 534.179688 442.882812 C 533.050781 440.601562 531.953125 438.1875 530.6875 435.773438 C 530.375 435.167969 530.050781 434.566406 529.707031 433.964844 C 529.378906 433.359375 529.023438 432.761719 528.65625 432.167969 C 528.304688 431.582031 527.898438 430.957031 527.476562 430.367188 C 527.046875 429.773438 526.59375 429.195312 526.101562 428.640625 C 524.160156 426.429688 521.71875 424.558594 518.90625 423.402344 C 516.097656 422.261719 512.910156 421.867188 509.914062 422.476562 C 506.90625 423.050781 504.164062 424.523438 501.929688 426.425781 C 499.675781 428.347656 497.90625 430.621094 496.34375 432.953125 C 493.230469 437.632812 490.890625 442.585938 488.238281 447.171875 C 486.921875 449.457031 485.507812 451.683594 483.929688 453.621094 C 482.351562 455.5 480.285156 456.898438 478.03125 457.550781 C 475.777344 458.21875 473.394531 458.125 471.230469 457.464844 C 470.144531 457.144531 469.117188 456.660156 468.148438 456.105469 C 467.179688 455.554688 466.285156 454.886719 465.453125 454.167969 C 463.878906 452.796875 462.613281 451.296875 461.554688 449.769531 C 460.496094 448.242188 459.640625 446.691406 458.882812 445.128906 C 458.699219 444.734375 458.519531 444.34375 458.339844 443.953125 C 458.160156 443.558594 458.007812 443.152344 457.839844 442.757812 C 457.5 441.925781 457.164062 441.09375 456.820312 440.253906 C 456.117188 438.550781 455.335938 436.8125 454.386719 435.023438 C 453.820312 433.9375 453.167969 432.832031 452.433594 431.71875 C 452.074219 431.15625 451.65625 430.609375 451.253906 430.046875 C 451.03125 429.773438 450.808594 429.496094 450.585938 429.21875 C 450.355469 428.945312 450.140625 428.65625 449.882812 428.394531 C 449.382812 427.859375 448.886719 427.304688 448.300781 426.796875 C 448.011719 426.542969 447.742188 426.269531 447.425781 426.027344 C 447.105469 425.789062 446.792969 425.542969 446.472656 425.304688 C 446.160156 425.054688 445.800781 424.847656 445.453125 424.628906 C 445.09375 424.417969 444.757812 424.179688 444.375 423.996094 C 443.988281 423.8125 443.605469 423.632812 443.21875 423.445312 L 442.925781 423.308594 L 442.621094 423.203125 L 442.003906 422.988281 C 441.183594 422.671875 440.3125 422.515625 439.4375 422.332031 C 438.546875 422.203125 437.621094 422.101562 436.695312 422.140625 C 434.847656 422.171875 433.003906 422.554688 431.296875 423.183594 C 429.582031 423.8125 428.015625 424.699219 426.574219 425.714844 C 425.136719 426.734375 423.824219 427.890625 422.628906 429.136719 C 421.429688 430.386719 420.351562 431.738281 419.378906 433.164062 C 418.421875 434.570312 417.589844 435.976562 416.804688 437.378906 C 415.234375 440.183594 413.886719 442.9375 412.429688 445.414062 C 411.703125 446.65625 410.949219 447.828125 410.152344 448.914062 C 409.949219 449.179688 409.753906 449.457031 409.542969 449.710938 L 408.914062 450.476562 C 408.460938 450.972656 408.023438 451.484375 407.550781 451.9375 C 407.097656 452.421875 406.605469 452.84375 406.128906 453.28125 C 405.636719 453.6875 405.148438 454.101562 404.632812 454.460938 C 403.617188 455.191406 402.574219 455.824219 401.5 456.316406 C 399.535156 457.1875 397.511719 457.65625 395.515625 457.59375 C 393.511719 457.566406 391.546875 457.027344 389.710938 456.140625 C 387.878906 455.230469 386.167969 453.972656 384.652344 452.457031 C 383.882812 451.714844 383.183594 450.878906 382.496094 450.035156 C 381.835938 449.160156 381.191406 448.265625 380.613281 447.3125 C 378.242188 443.613281 376.886719 439.035156 374.929688 434.257812 C 374.429688 433.066406 373.886719 431.855469 373.25 430.65625 C 372.617188 429.453125 371.886719 428.257812 371 427.128906 C 369.261719 424.851562 366.808594 422.902344 363.890625 421.828125 C 362.296875 421.25 360.59375 420.953125 358.894531 420.921875 C 357.195312 420.886719 355.507812 421.132812 353.871094 421.535156 C 350.605469 422.363281 347.574219 423.871094 344.757812 425.675781 C 341.949219 427.5 339.34375 429.644531 336.949219 432.019531 C 334.601562 434.402344 332.382812 436.800781 330.042969 439.070312 C 327.71875 441.339844 325.292969 443.476562 322.683594 445.230469 C 321.378906 446.097656 320.027344 446.863281 318.636719 447.480469 C 317.246094 448.09375 315.808594 448.542969 314.363281 448.804688 C 312.914062 449.0625 311.445312 449.117188 310.003906 448.964844 C 308.566406 448.832031 307.15625 448.515625 305.808594 448.003906 C 304.457031 447.5 303.15625 446.851562 301.90625 446.101562 C 300.667969 445.332031 299.472656 444.480469 298.320312 443.578125 Z M 298.3125 443.574219 " />
        </g>
    </g>
</svg>