<svg xmlns="http://www.w3.org/2000/svg" xmlns:xlink="http://www.w3.org/1999/xlink" width="228" zoomAndPan="magnify" viewBox="0 0 171 80.999996" height="108" preserveAspectRatio="xMidYMid meet" version="1.2"><defs><clipPath id="85379d46a1"><path d="M 68 26 L 84 26 L 84 56.550781 L 68 56.550781 Z M 68 26 "/></clipPath><clipPath id="4045c310e7"><path d="M 68 26 L 85 26 L 85 56.550781 L 68 56.550781 Z M 68 26 "/></clipPath></defs><g id="71bbe07d8c"><g clip-rule="nonzero" clip-path="url(#85379d46a1)"><path style=" stroke:none;fill-rule:nonzero;fill:#ffffff;fill-opacity:1;" d="M 83.96875 37.28125 C 83.96875 37.28125 83.742188 27.519531 77.226562 26.988281 C 70.714844 26.453125 66.214844 33.4375 70.710938 40.65625 C 75.210938 47.875 83.671875 49.296875 83.554688 56.632812 "/></g><path style=" stroke:none;fill-rule:nonzero;fill:#ffffff;fill-opacity:1;" d="M 83.96875 36.355469 C 83.96875 36.355469 86.394531 28.1875 94.242188 26.257812 C 102.09375 24.324219 104.777344 34.503906 100.082031 41.050781 C 95.390625 47.601562 83.316406 55.527344 83.316406 55.527344 "/><g clip-rule="nonzero" clip-path="url(#4045c310e7)"><path style=" stroke:none;fill-rule:nonzero;fill:#484444;fill-opacity:1;" d="M 70.066406 37.550781 C 70.066406 37.550781 70.035156 37.4375 69.96875 37.230469 C 69.929688 37.125 69.90625 36.992188 69.867188 36.839844 C 69.832031 36.683594 69.785156 36.507812 69.753906 36.304688 C 69.71875 36.105469 69.679688 35.882812 69.660156 35.640625 C 69.625 35.402344 69.617188 35.136719 69.609375 34.859375 C 69.605469 34.300781 69.644531 33.667969 69.792969 33 C 69.941406 32.335938 70.195312 31.636719 70.578125 30.964844 C 70.765625 30.628906 71 30.308594 71.253906 29.988281 C 71.519531 29.683594 71.800781 29.378906 72.128906 29.117188 C 73.40625 28.023438 75.214844 27.433594 77.015625 27.523438 C 77.902344 27.542969 78.75 27.78125 79.496094 28.199219 C 80.238281 28.617188 80.851562 29.222656 81.351562 29.878906 C 82.339844 31.210938 82.878906 32.699219 83.234375 33.921875 C 83.589844 35.148438 83.765625 36.140625 83.890625 36.714844 C 84.011719 37.289062 84.097656 37.460938 84.179688 37.0625 C 84.246094 36.664062 84.269531 35.492188 83.941406 33.777344 C 83.855469 33.351562 83.75 32.886719 83.601562 32.402344 C 83.457031 31.914062 83.28125 31.398438 83.042969 30.871094 C 82.808594 30.339844 82.523438 29.792969 82.15625 29.257812 C 81.785156 28.722656 81.328125 28.199219 80.769531 27.738281 C 80.214844 27.28125 79.546875 26.894531 78.8125 26.644531 C 78.074219 26.394531 77.273438 26.289062 76.492188 26.285156 C 74.910156 26.265625 73.21875 26.714844 71.792969 27.691406 C 70.363281 28.65625 69.226562 30.132812 68.660156 31.820312 C 68.074219 33.503906 68.039062 35.355469 68.429688 37.0625 C 68.625 37.914062 68.90625 38.742188 69.277344 39.515625 C 69.644531 40.292969 70.082031 41.023438 70.550781 41.707031 C 71.03125 42.386719 71.546875 43.027344 72.085938 43.628906 C 72.628906 44.222656 73.195312 44.777344 73.765625 45.296875 C 76.0625 47.363281 78.421875 48.878906 80.09375 50.441406 C 80.941406 51.214844 81.597656 52.003906 82.070312 52.753906 C 82.539062 53.511719 82.804688 54.234375 82.96875 54.832031 C 83.035156 55.136719 83.105469 55.40625 83.136719 55.640625 C 83.15625 55.757812 83.175781 55.867188 83.191406 55.960938 C 83.203125 56.0625 83.214844 56.148438 83.222656 56.226562 C 83.261719 56.535156 83.300781 56.675781 83.335938 56.617188 C 83.402344 56.496094 83.492188 56.03125 83.464844 55.292969 C 83.4375 54.5625 83.234375 53.554688 82.703125 52.488281 C 82.433594 51.957031 82.085938 51.417969 81.671875 50.890625 C 81.261719 50.359375 80.777344 49.847656 80.265625 49.347656 C 79.234375 48.347656 78.054688 47.402344 76.925781 46.449219 C 75.789062 45.496094 74.695312 44.53125 73.773438 43.542969 C 72.84375 42.566406 72.085938 41.574219 71.523438 40.679688 C 70.960938 39.785156 70.59375 39.003906 70.375 38.441406 C 70.265625 38.160156 70.195312 37.9375 70.140625 37.785156 C 70.089844 37.632812 70.066406 37.550781 70.066406 37.550781 Z M 70.066406 37.550781 "/></g><path style=" stroke:none;fill-rule:nonzero;fill:#484444;fill-opacity:1;" d="M 102.558594 37.628906 C 102.558594 37.628906 102.601562 37.488281 102.675781 37.230469 C 102.734375 36.96875 102.839844 36.585938 102.917969 36.089844 C 103.085938 35.105469 103.222656 33.664062 102.941406 31.96875 C 102.796875 31.125 102.546875 30.21875 102.113281 29.324219 C 101.90625 28.871094 101.632812 28.433594 101.328125 28.007812 C 101 27.59375 100.644531 27.183594 100.210938 26.84375 C 99.789062 26.484375 99.300781 26.195312 98.785156 25.960938 C 98.523438 25.855469 98.261719 25.746094 97.984375 25.679688 C 97.710938 25.59375 97.429688 25.550781 97.148438 25.503906 C 96.019531 25.339844 94.878906 25.507812 93.835938 25.804688 C 91.75 26.394531 89.867188 27.511719 88.453125 28.832031 C 87.023438 30.144531 86.011719 31.597656 85.332031 32.84375 C 84.652344 34.089844 84.285156 35.136719 84.128906 35.757812 C 83.980469 36.382812 84.027344 36.570312 84.242188 36.214844 C 84.46875 35.863281 84.949219 34.742188 85.933594 33.238281 C 86.425781 32.488281 87.042969 31.648438 87.832031 30.808594 C 88.621094 29.96875 89.585938 29.132812 90.734375 28.425781 C 91.882812 27.730469 93.230469 27.148438 94.691406 26.859375 C 95.40625 26.714844 96.148438 26.660156 96.871094 26.765625 C 97.597656 26.867188 98.292969 27.125 98.90625 27.542969 C 99.519531 27.957031 100.046875 28.519531 100.460938 29.179688 C 100.878906 29.839844 101.175781 30.597656 101.375 31.386719 C 101.769531 32.972656 101.75 34.691406 101.394531 36.320312 C 101.042969 37.957031 100.339844 39.496094 99.367188 40.8125 C 99.113281 41.144531 98.859375 41.472656 98.609375 41.804688 C 98.335938 42.117188 98.0625 42.433594 97.796875 42.746094 C 97.53125 43.0625 97.242188 43.355469 96.960938 43.648438 C 96.675781 43.941406 96.410156 44.246094 96.117188 44.523438 C 93.828125 46.789062 91.527344 48.722656 89.550781 50.316406 C 85.578125 53.496094 82.894531 55.359375 83.207031 55.339844 C 83.816406 55.296875 89.433594 51.828125 94.417969 47.679688 C 96.902344 45.59375 99.222656 43.339844 100.683594 41.34375 C 101.421875 40.324219 101.882812 39.378906 102.167969 38.707031 C 102.296875 38.363281 102.40625 38.097656 102.464844 37.914062 C 102.527344 37.726562 102.558594 37.628906 102.558594 37.628906 Z M 102.558594 37.628906 "/></g></svg>