<svg xmlns="http://www.w3.org/2000/svg" xmlns:xlink="http://www.w3.org/1999/xlink" width="228" zoomAndPan="magnify" viewBox="0 0 171 80.999996" height="108" preserveAspectRatio="xMidYMid meet" version="1.2"><defs><clipPath id="e5218a3a24"><path d="M 69.367188 24.300781 L 101.617188 24.300781 L 101.617188 56.550781 L 69.367188 56.550781 Z M 69.367188 24.300781 "/></clipPath></defs><g id="dccc106772"><g clip-rule="nonzero" clip-path="url(#e5218a3a24)"><path style=" stroke:none;fill-rule:nonzero;fill:#dc0611;fill-opacity:1;" d="M 95.382812 43.796875 C 93.285156 45.363281 91.128906 46.859375 89.300781 48.753906 C 87.824219 50.28125 86.9375 52.082031 86.8125 54.222656 C 86.796875 54.550781 86.816406 54.878906 86.816406 55.210938 C 86.816406 55.648438 86.816406 56.089844 86.664062 56.546875 C 86.628906 56.367188 86.574219 56.191406 86.558594 56.007812 C 86.484375 55.171875 86.46875 54.324219 86.347656 53.496094 C 86.09375 51.773438 85.222656 50.339844 84.097656 49.046875 C 84.027344 48.96875 83.898438 48.941406 83.796875 48.890625 C 83.625 48.339844 83.234375 48.011719 82.699219 47.832031 C 82.644531 47.765625 82.589844 47.703125 82.535156 47.640625 L 82.511719 47.59375 L 82.546875 47.625 C 82.605469 47.683594 82.664062 47.746094 82.722656 47.804688 C 83.085938 48.164062 83.449219 48.519531 83.8125 48.875 C 83.910156 49.054688 83.984375 49.25 84.105469 49.414062 C 85.472656 51.285156 86.1875 53.375 86.292969 55.820312 C 86.152344 55.597656 86.0625 55.480469 86 55.351562 C 85.9375 55.214844 85.894531 55.070312 85.851562 54.929688 C 85.1875 52.664062 83.824219 50.867188 82.09375 49.316406 C 81.902344 49.144531 81.660156 49.03125 81.441406 48.890625 C 81.378906 48.828125 81.320312 48.765625 81.261719 48.703125 C 81.199219 48.640625 81.144531 48.578125 81.082031 48.515625 C 80.777344 48.285156 80.46875 48.050781 80.160156 47.820312 C 80.101562 47.753906 80.042969 47.6875 79.984375 47.621094 C 79.925781 47.558594 79.871094 47.492188 79.816406 47.429688 C 79.625 47.320312 79.4375 47.214844 79.25 47.109375 C 79.191406 47.039062 79.128906 46.972656 79.070312 46.902344 C 79.015625 46.839844 78.957031 46.773438 78.902344 46.710938 C 78.71875 46.601562 78.53125 46.492188 78.34375 46.386719 C 78.285156 46.316406 78.222656 46.246094 78.160156 46.179688 C 78.105469 46.113281 78.050781 46.046875 77.996094 45.984375 C 77.9375 45.921875 77.875 45.863281 77.816406 45.800781 C 77.628906 45.695312 77.445312 45.589844 77.261719 45.484375 C 77.199219 45.414062 77.132812 45.34375 77.070312 45.273438 C 77.011719 45.210938 76.957031 45.148438 76.898438 45.085938 C 76.839844 45.019531 76.785156 44.957031 76.726562 44.890625 C 76.726562 44.890625 76.695312 44.855469 76.695312 44.855469 L 76.746094 44.871094 C 76.804688 44.933594 76.863281 45 76.921875 45.0625 C 76.976562 45.125 77.035156 45.1875 77.09375 45.253906 C 77.15625 45.324219 77.21875 45.394531 77.28125 45.460938 C 77.46875 45.566406 77.652344 45.671875 77.839844 45.777344 C 77.898438 45.835938 77.960938 45.898438 78.019531 45.960938 C 78.074219 46.023438 78.128906 46.089844 78.1875 46.15625 C 78.246094 46.222656 78.308594 46.292969 78.371094 46.363281 C 78.554688 46.46875 78.742188 46.578125 78.925781 46.6875 C 78.980469 46.75 79.039062 46.816406 79.09375 46.878906 C 79.152344 46.949219 79.210938 47.015625 79.269531 47.085938 C 79.460938 47.191406 79.648438 47.300781 79.839844 47.40625 C 79.894531 47.472656 79.949219 47.535156 80.003906 47.601562 C 80.066406 47.667969 80.125 47.734375 80.183594 47.800781 C 80.488281 48.03125 80.796875 48.265625 81.105469 48.496094 C 81.164062 48.558594 81.21875 48.621094 81.277344 48.6875 C 81.339844 48.75 81.398438 48.8125 81.457031 48.871094 C 81.816406 49.3125 82.179688 49.746094 82.527344 50.191406 C 82.984375 50.773438 83.398438 51.382812 83.632812 52.320312 C 83.410156 52.078125 83.3125 52.003906 83.257812 51.90625 C 82.382812 50.394531 81.117188 49.234375 79.828125 48.09375 C 78.199219 46.65625 76.542969 45.257812 74.949219 43.78125 C 73.332031 42.28125 71.902344 40.617188 70.863281 38.648438 C 69.707031 36.464844 69.371094 34.148438 69.714844 31.734375 C 70.195312 28.398438 72.640625 25.9375 76.121094 25.226562 C 78.519531 24.734375 80.769531 25.136719 82.769531 26.527344 C 83.921875 27.328125 84.945312 28.316406 86.058594 29.246094 C 86.019531 29.265625 86.101562 29.253906 86.113281 29.21875 C 86.894531 27.054688 88.554688 25.816406 90.644531 25.136719 C 93.21875 24.300781 95.722656 24.589844 98.035156 26.023438 C 100.039062 27.261719 101.136719 29.097656 101.398438 31.421875 C 101.609375 33.316406 101.25 35.136719 100.566406 36.898438 C 99.402344 39.886719 97.734375 42.535156 95.234375 44.617188 C 94.121094 45.542969 93 46.460938 91.941406 47.441406 C 91.015625 48.300781 90.144531 49.222656 89.300781 50.160156 C 88.550781 50.996094 87.992188 51.960938 87.644531 53.039062 C 87.574219 53.261719 87.464844 53.46875 87.226562 53.640625 C 87.324219 53.277344 87.398438 52.902344 87.519531 52.546875 C 88.15625 50.667969 89.371094 49.175781 90.816406 47.875 C 92.070312 46.746094 93.394531 45.695312 94.679688 44.601562 C 94.949219 44.371094 95.183594 44.101562 95.4375 43.851562 C 95.488281 43.78125 95.539062 43.710938 95.589844 43.640625 C 96.316406 43.28125 96.859375 42.738281 97.210938 42.007812 C 97.273438 41.949219 97.339844 41.890625 97.402344 41.832031 C 97.582031 41.59375 97.761719 41.351562 97.945312 41.113281 C 98.0625 40.929688 98.179688 40.75 98.300781 40.566406 C 98.421875 40.386719 98.546875 40.210938 98.667969 40.03125 C 98.722656 39.902344 98.777344 39.773438 98.832031 39.648438 C 99.378906 39.171875 99.636719 38.554688 99.75 37.863281 C 99.8125 37.738281 99.871094 37.613281 99.933594 37.488281 C 100.578125 36.410156 101.058594 34.613281 100.921875 33.785156 C 100.773438 34.386719 100.628906 34.996094 100.46875 35.605469 C 100.304688 36.242188 100.128906 36.875 99.957031 37.507812 C 99.894531 37.632812 99.835938 37.757812 99.773438 37.878906 C 99.46875 38.476562 99.160156 39.070312 98.855469 39.664062 C 98.800781 39.792969 98.746094 39.921875 98.691406 40.050781 C 98.570312 40.230469 98.445312 40.40625 98.320312 40.585938 C 98.203125 40.765625 98.082031 40.949219 97.964844 41.132812 C 97.78125 41.371094 97.601562 41.613281 97.421875 41.851562 C 97.355469 41.910156 97.292969 41.964844 97.226562 42.023438 C 96.683594 42.5625 96.136719 43.101562 95.589844 43.640625 C 95.519531 43.691406 95.453125 43.742188 95.382812 43.796875 Z M 96.3125 41.28125 C 96.375 41.222656 96.4375 41.164062 96.5 41.105469 C 96.558594 41.046875 96.621094 40.988281 96.679688 40.925781 C 96.746094 40.871094 96.8125 40.816406 96.875 40.757812 C 96.917969 40.628906 96.960938 40.5 97.003906 40.367188 C 97.074219 40.308594 97.144531 40.25 97.214844 40.1875 C 97.28125 40.132812 97.34375 40.078125 97.410156 40.023438 C 97.460938 39.902344 97.507812 39.78125 97.558594 39.65625 C 97.566406 39.664062 97.574219 39.671875 97.582031 39.679688 C 97.53125 39.804688 97.484375 39.925781 97.433594 40.046875 C 97.371094 40.101562 97.304688 40.15625 97.238281 40.210938 C 97.167969 40.269531 97.09375 40.332031 97.023438 40.390625 C 96.984375 40.519531 96.941406 40.652344 96.898438 40.78125 C 96.835938 40.835938 96.769531 40.894531 96.703125 40.949219 C 96.644531 41.007812 96.582031 41.070312 96.519531 41.128906 C 96.460938 41.1875 96.398438 41.246094 96.335938 41.304688 C 96.269531 41.367188 96.203125 41.425781 96.136719 41.484375 C 96.078125 41.542969 96.019531 41.601562 95.960938 41.65625 C 95.902344 41.71875 95.84375 41.777344 95.78125 41.839844 C 95.722656 41.898438 95.660156 41.960938 95.601562 42.023438 C 95.542969 42.082031 95.484375 42.144531 95.421875 42.203125 C 95.367188 42.265625 95.308594 42.332031 95.253906 42.394531 C 95.191406 42.457031 95.128906 42.523438 95.066406 42.589844 C 94.816406 42.757812 94.566406 42.921875 94.320312 43.089844 C 94.265625 43.15625 94.210938 43.226562 94.160156 43.292969 C 94.097656 43.359375 94.039062 43.425781 93.980469 43.492188 C 93.796875 43.601562 93.609375 43.714844 93.425781 43.824219 C 93.363281 43.890625 93.304688 43.957031 93.246094 44.023438 C 93.0625 44.136719 92.878906 44.25 92.695312 44.363281 C 92.636719 44.429688 92.578125 44.5 92.519531 44.566406 C 92.335938 44.675781 92.148438 44.789062 91.964844 44.898438 C 91.910156 44.964844 91.855469 45.03125 91.804688 45.097656 C 91.746094 45.164062 91.6875 45.230469 91.628906 45.296875 C 91.4375 45.40625 91.25 45.515625 91.0625 45.625 C 91.003906 45.691406 90.945312 45.761719 90.886719 45.828125 C 90.703125 45.9375 90.523438 46.050781 90.339844 46.160156 L 90.300781 46.199219 L 90.320312 46.140625 C 90.5 46.027344 90.683594 45.914062 90.863281 45.804688 C 90.921875 45.738281 90.980469 45.667969 91.039062 45.601562 C 91.226562 45.492188 91.414062 45.382812 91.605469 45.277344 C 91.664062 45.207031 91.722656 45.140625 91.78125 45.074219 C 91.832031 45.007812 91.886719 44.941406 91.941406 44.875 C 92.125 44.761719 92.3125 44.652344 92.496094 44.542969 C 92.554688 44.472656 92.613281 44.40625 92.671875 44.335938 C 92.855469 44.226562 93.039062 44.113281 93.222656 44 C 93.28125 43.933594 93.339844 43.867188 93.398438 43.800781 C 93.585938 43.6875 93.769531 43.578125 93.957031 43.46875 C 94.015625 43.402344 94.078125 43.335938 94.136719 43.269531 C 94.191406 43.203125 94.242188 43.136719 94.292969 43.066406 C 94.542969 42.902344 94.792969 42.734375 95.042969 42.566406 C 95.105469 42.5 95.167969 42.4375 95.230469 42.371094 C 95.289062 42.308594 95.34375 42.246094 95.402344 42.183594 C 95.460938 42.121094 95.519531 42.0625 95.582031 42 C 95.640625 41.9375 95.699219 41.878906 95.757812 41.816406 C 95.820312 41.757812 95.878906 41.695312 95.941406 41.636719 C 96 41.578125 96.058594 41.519531 96.113281 41.464844 C 96.179688 41.402344 96.246094 41.34375 96.3125 41.28125 Z M 72.933594 41.097656 C 73 41.15625 73.070312 41.21875 73.136719 41.277344 C 73.1875 41.402344 73.234375 41.523438 73.285156 41.648438 C 73.34375 41.707031 73.402344 41.769531 73.460938 41.828125 C 73.527344 41.886719 73.589844 41.941406 73.65625 41.996094 C 73.714844 42.054688 73.773438 42.117188 73.832031 42.179688 C 73.894531 42.234375 73.957031 42.292969 74.019531 42.347656 C 74.078125 42.414062 74.132812 42.476562 74.191406 42.542969 C 74.195312 42.5625 74.199219 42.582031 74.203125 42.601562 C 74.195312 42.585938 74.191406 42.570312 74.183594 42.554688 C 74.125 42.492188 74.0625 42.429688 74 42.367188 C 73.9375 42.3125 73.875 42.253906 73.808594 42.199219 C 73.75 42.136719 73.691406 42.078125 73.632812 42.015625 C 73.566406 41.960938 73.503906 41.90625 73.4375 41.851562 C 73.378906 41.792969 73.316406 41.730469 73.257812 41.671875 C 73.210938 41.546875 73.160156 41.425781 73.113281 41.300781 C 73.042969 41.242188 72.976562 41.179688 72.910156 41.121094 C 72.847656 41.066406 72.78125 41.011719 72.71875 40.957031 C 72.597656 40.773438 72.480469 40.59375 72.363281 40.414062 C 72.246094 40.226562 72.128906 40.042969 72.007812 39.855469 C 71.441406 38.578125 70.871094 37.300781 70.300781 36.023438 C 70.285156 36.257812 70.316406 36.484375 70.394531 36.695312 C 70.796875 37.816406 71.171875 38.953125 72.027344 39.839844 C 72.148438 40.023438 72.265625 40.210938 72.386719 40.394531 C 72.503906 40.574219 72.621094 40.753906 72.738281 40.929688 C 72.804688 40.988281 72.867188 41.042969 72.933594 41.097656 Z M 89.054688 45.976562 C 89.117188 45.917969 89.183594 45.863281 89.246094 45.808594 C 89.421875 45.714844 89.617188 45.648438 89.773438 45.527344 C 90.574219 44.914062 91.371094 44.289062 92.164062 43.65625 C 92.292969 43.550781 92.386719 43.402344 92.5 43.273438 C 92.742188 43.089844 92.984375 42.910156 93.230469 42.730469 C 93.46875 42.550781 93.710938 42.371094 93.949219 42.195312 C 94.011719 42.128906 94.070312 42.066406 94.128906 42 C 95.054688 41.597656 95.632812 40.808594 96.261719 40.074219 C 96.304688 40.023438 96.28125 39.910156 96.289062 39.824219 C 96.355469 39.769531 96.421875 39.710938 96.488281 39.65625 C 96.605469 39.46875 96.722656 39.285156 96.839844 39.101562 C 96.964844 38.929688 97.09375 38.761719 97.21875 38.59375 C 97.28125 38.472656 97.339844 38.351562 97.398438 38.230469 C 97.457031 38.097656 97.511719 37.96875 97.566406 37.832031 C 97.625 37.710938 97.6875 37.589844 97.746094 37.46875 C 97.789062 37.417969 97.832031 37.367188 97.792969 37.414062 C 97.8125 37.355469 97.792969 37.425781 97.769531 37.492188 C 97.710938 37.613281 97.652344 37.738281 97.59375 37.859375 C 97.535156 37.992188 97.480469 38.121094 97.425781 38.253906 C 97.363281 38.375 97.304688 38.496094 97.246094 38.617188 C 97.117188 38.785156 96.988281 38.953125 96.863281 39.121094 C 96.746094 39.304688 96.628906 39.492188 96.511719 39.675781 C 96.441406 39.734375 96.375 39.789062 96.308594 39.847656 C 95.585938 40.570312 94.867188 41.296875 94.148438 42.019531 C 94.089844 42.085938 94.03125 42.148438 93.972656 42.214844 C 93.730469 42.394531 93.488281 42.570312 93.25 42.75 C 93.003906 42.929688 92.757812 43.109375 92.515625 43.289062 C 91.605469 43.902344 90.691406 44.503906 89.800781 45.144531 C 89.570312 45.308594 89.429688 45.585938 89.246094 45.808594 C 89.1875 45.871094 89.132812 45.933594 89.074219 45.996094 C 89.050781 46 89.027344 46.003906 89.007812 46.015625 C 88.996094 46.023438 88.996094 46.046875 88.992188 46.0625 C 89.011719 46.03125 89.035156 46.003906 89.054688 45.976562 Z M 97.941406 39.097656 L 97.976562 39.082031 L 97.949219 39.113281 L 97.917969 39.15625 Z M 75.8125 44.191406 C 75.820312 44.207031 75.828125 44.21875 75.835938 44.234375 C 75.824219 44.21875 75.808594 44.203125 75.792969 44.1875 L 75.785156 44.144531 Z M 90.515625 43.988281 L 90.566406 43.957031 C 90.566406 43.957031 90.539062 44.011719 90.539062 44.011719 C 90.476562 44.078125 90.414062 44.148438 90.351562 44.214844 C 89.558594 44.453125 89.132812 45.082031 88.761719 45.769531 C 89.285156 45.246094 89.804688 44.71875 90.328125 44.191406 C 90.390625 44.125 90.453125 44.054688 90.515625 43.988281 Z M 77.835938 43.625 C 77.894531 43.691406 77.953125 43.753906 78.011719 43.816406 C 78.71875 44.65625 79.53125 45.359375 80.550781 45.800781 C 80.59375 45.824219 80.640625 45.851562 80.683594 45.875 C 80.632812 45.855469 80.585938 45.835938 80.535156 45.816406 C 79.871094 44.921875 78.921875 44.390625 77.992188 43.835938 C 77.933594 43.773438 77.875 43.707031 77.816406 43.644531 C 77.757812 43.582031 77.699219 43.523438 77.636719 43.460938 C 76.851562 42.679688 76.066406 41.902344 75.277344 41.121094 C 75.21875 41.058594 75.15625 41 75.097656 40.941406 C 74.855469 40.640625 74.613281 40.339844 74.367188 40.042969 C 74.300781 39.710938 74.183594 39.421875 73.808594 39.332031 C 73.847656 39.042969 73.75 38.847656 73.4375 38.800781 C 73.382812 38.675781 73.328125 38.554688 73.273438 38.429688 C 73.222656 38.300781 73.167969 38.171875 73.117188 38.042969 C 73.101562 38.019531 73.09375 37.996094 73.074219 37.976562 C 73.066406 37.964844 73.042969 37.972656 73.027344 37.972656 C 73.0625 37.988281 73.101562 38.003906 73.140625 38.019531 C 73.191406 38.148438 73.242188 38.28125 73.296875 38.410156 C 73.351562 38.535156 73.40625 38.660156 73.460938 38.78125 C 73.582031 38.960938 73.707031 39.136719 73.832031 39.316406 C 74.015625 39.550781 74.199219 39.789062 74.386719 40.027344 C 74.628906 40.324219 74.867188 40.625 75.109375 40.925781 C 75.171875 40.988281 75.230469 41.046875 75.292969 41.105469 C 75.730469 42.027344 76.585938 42.574219 77.269531 43.273438 C 77.359375 43.367188 77.527344 43.386719 77.660156 43.441406 C 77.71875 43.503906 77.777344 43.566406 77.835938 43.625 Z M 99.203125 27.929688 C 99.210938 27.945312 99.21875 27.960938 99.222656 27.976562 C 99.210938 27.960938 99.199219 27.949219 99.1875 27.933594 C 99.132812 27.871094 99.078125 27.804688 99.023438 27.742188 L 99 27.707031 L 99.042969 27.722656 C 99.097656 27.789062 99.152344 27.859375 99.203125 27.929688 Z M 98.472656 27.394531 L 98.523438 27.417969 L 98.453125 27.414062 C 98.402344 27.34375 98.351562 27.273438 98.304688 27.203125 C 98.175781 27.15625 98.046875 27.105469 97.914062 27.058594 C 97.90625 27.003906 97.921875 26.921875 97.890625 26.898438 C 96.4375 25.890625 94.910156 25.074219 93.066406 25.207031 C 90.78125 25.367188 88.855469 26.320312 87.289062 27.976562 C 87.113281 28.164062 87.023438 28.425781 86.894531 28.65625 C 86.867188 28.722656 86.84375 28.792969 86.816406 28.863281 C 86.835938 28.789062 86.855469 28.710938 86.875 28.636719 C 86.972656 28.578125 87.101562 28.539062 87.160156 28.453125 C 88.542969 26.515625 90.679688 26.011719 92.808594 25.585938 C 93.8125 25.382812 94.855469 25.609375 95.8125 26.046875 C 96.523438 26.371094 97.230469 26.703125 97.9375 27.03125 C 98.066406 27.082031 98.199219 27.132812 98.328125 27.179688 C 98.375 27.253906 98.425781 27.324219 98.472656 27.394531 Z M 71.652344 37.855469 L 71.691406 37.898438 C 71.691406 37.898438 71.628906 37.875 71.628906 37.875 C 71.578125 37.746094 71.527344 37.617188 71.480469 37.488281 C 71.445312 37.449219 71.410156 37.40625 71.378906 37.367188 C 71.417969 37.402344 71.460938 37.433594 71.5 37.46875 C 71.550781 37.597656 71.601562 37.726562 71.652344 37.855469 Z M 72.554688 36.984375 C 72.535156 36.917969 72.515625 36.851562 72.53125 36.90625 C 72.496094 36.863281 72.539062 36.910156 72.578125 36.960938 C 72.597656 37.03125 72.613281 37.101562 72.601562 37.050781 C 72.628906 37.09375 72.59375 37.039062 72.554688 36.984375 Z M 85.957031 30.847656 C 85.902344 30.722656 85.847656 30.59375 85.792969 30.464844 C 85.582031 30.046875 85.4375 29.582031 85.152344 29.21875 C 83.789062 27.460938 81.964844 26.417969 79.800781 25.933594 C 78.539062 25.65625 77.300781 25.710938 76.050781 26.054688 C 73.933594 26.628906 72.867188 28.160156 72.207031 30.089844 C 72.152344 30.285156 72.097656 30.476562 72.042969 30.667969 C 71.984375 30.972656 71.925781 31.277344 71.871094 31.582031 C 71.796875 32.320312 71.722656 33.058594 71.652344 33.796875 C 71.714844 33.800781 71.78125 33.804688 71.84375 33.804688 C 71.84375 33.058594 71.84375 32.308594 71.84375 31.558594 C 71.902344 31.253906 71.960938 30.953125 72.019531 30.648438 C 72.070312 30.457031 72.125 30.261719 72.179688 30.070312 C 72.285156 29.929688 72.410156 29.804688 72.496094 29.65625 C 73.917969 27.148438 76.542969 25.917969 79.378906 26.421875 C 81.777344 26.851562 83.671875 28.109375 85.253906 29.902344 C 85.421875 30.097656 85.621094 30.269531 85.808594 30.453125 C 85.867188 30.578125 85.925781 30.703125 85.980469 30.828125 C 86.003906 30.886719 86.027344 30.941406 86.007812 30.890625 C 86.050781 30.925781 86.003906 30.886719 85.957031 30.847656 Z M 98.101562 36.558594 C 98.144531 36.511719 98.191406 36.464844 98.15625 36.5 C 98.175781 36.453125 98.148438 36.515625 98.121094 36.582031 C 98.09375 36.644531 98.0625 36.707031 98.085938 36.65625 C 98.078125 36.707031 98.089844 36.632812 98.101562 36.558594 Z M 98.691406 34.636719 C 98.625 34.925781 98.5625 35.214844 98.496094 35.507812 C 98.445312 35.613281 98.398438 35.722656 98.347656 35.828125 C 98.375 35.839844 98.402344 35.847656 98.425781 35.855469 C 98.441406 35.734375 98.457031 35.609375 98.472656 35.484375 C 98.539062 35.195312 98.601562 34.90625 98.667969 34.617188 C 98.707031 34.515625 98.746094 34.417969 98.785156 34.316406 C 98.753906 34.3125 98.722656 34.304688 98.691406 34.296875 C 98.691406 34.410156 98.691406 34.523438 98.691406 34.636719 Z M 87.417969 29.714844 C 87.816406 29.28125 88.207031 28.839844 88.613281 28.417969 C 89.894531 27.09375 91.429688 26.402344 93.304688 26.628906 C 95.335938 26.875 96.875 27.9375 98.082031 29.53125 C 98.273438 29.785156 98.492188 30.015625 98.695312 30.253906 C 98.726562 30.328125 98.757812 30.398438 98.785156 30.472656 C 98.75 30.40625 98.710938 30.339844 98.671875 30.273438 C 98.511719 29.921875 98.402344 29.535156 98.1875 29.222656 C 96.714844 27.105469 94.65625 26.105469 92.089844 26.132812 C 90.359375 26.152344 88.078125 27.667969 87.4375 29.734375 C 87.429688 29.753906 87.417969 29.769531 87.40625 29.789062 C 87.410156 29.761719 87.414062 29.738281 87.417969 29.714844 Z M 101.136719 32.320312 C 101.121094 32.320312 101.109375 32.320312 101.09375 32.320312 C 101.09375 32.582031 101.09375 32.84375 101.09375 33.101562 C 101.109375 33.101562 101.121094 33.101562 101.136719 33.101562 C 101.136719 32.84375 101.136719 32.582031 101.136719 32.320312 Z M 70.0625 35.488281 C 70.101562 35.484375 70.140625 35.480469 70.183594 35.476562 C 70.160156 35.375 70.136719 35.277344 70.113281 35.179688 C 70.097656 35.28125 70.078125 35.382812 70.0625 35.488281 Z M 99.6875 34.585938 C 99.6875 34.535156 99.6875 34.488281 99.683594 34.4375 C 99.683594 34.4375 99.660156 34.4375 99.644531 34.433594 C 99.644531 34.484375 99.644531 34.535156 99.644531 34.585938 C 99.644531 34.585938 99.667969 34.585938 99.6875 34.585938 Z M 75.289062 25.835938 L 75.214844 25.855469 L 75.285156 25.871094 Z M 75.289062 25.835938 "/></g></g></svg>