<svg xmlns="http://www.w3.org/2000/svg" xmlns:xlink="http://www.w3.org/1999/xlink" width="auto" zoomAndPan="magnify"
    viewBox="0 0 1536 1151.999944" height="auto" preserveAspectRatio="xMidYMid meet" version="1.2">
    <defs>
        <clipPath id="39dfa5941b">
            <path d="M 534 803 L 990 803 L 990 1069.8125 L 534 1069.8125 Z M 534 803 " />
        </clipPath>
    </defs>
    <g id="50b9c2f952">
        <g clip-rule="nonzero" clip-path="url(#39dfa5941b)">
            <path style=" stroke:none;fill-rule:nonzero;fill:#b1b9c6;fill-opacity:1;"
                d="M 989.128906 936.761719 C 989.128906 938.9375 989.039062 941.109375 988.855469 943.28125 C 988.671875 945.453125 988.398438 947.621094 988.035156 949.785156 C 987.667969 951.949219 987.214844 954.105469 986.667969 956.257812 C 986.121094 958.40625 985.484375 960.546875 984.761719 962.679688 C 984.035156 964.8125 983.21875 966.933594 982.316406 969.042969 C 981.410156 971.152344 980.417969 973.246094 979.339844 975.328125 C 978.257812 977.410156 977.09375 979.472656 975.839844 981.519531 C 974.585938 983.566406 973.246094 985.597656 971.824219 987.605469 C 970.398438 989.613281 968.890625 991.601562 967.300781 993.566406 C 965.710938 995.53125 964.039062 997.472656 962.285156 999.390625 C 960.53125 1001.308594 958.699219 1003.199219 956.785156 1005.066406 C 954.871094 1006.929688 952.882812 1008.765625 950.816406 1010.574219 C 948.75 1012.382812 946.605469 1014.160156 944.390625 1015.90625 C 942.171875 1017.652344 939.886719 1019.367188 937.523438 1021.046875 C 935.164062 1022.726562 932.734375 1024.375 930.238281 1025.984375 C 927.738281 1027.59375 925.171875 1029.167969 922.542969 1030.707031 C 919.910156 1032.246094 917.21875 1033.742188 914.460938 1035.203125 C 911.703125 1036.664062 908.886719 1038.082031 906.011719 1039.464844 C 903.136719 1040.84375 900.203125 1042.179688 897.214844 1043.476562 C 894.226562 1044.769531 891.1875 1046.023438 888.09375 1047.230469 C 885 1048.4375 881.855469 1049.601562 878.664062 1050.71875 C 875.472656 1051.835938 872.238281 1052.90625 868.957031 1053.933594 C 865.675781 1054.957031 862.351562 1055.933594 858.988281 1056.863281 C 855.625 1057.792969 852.226562 1058.675781 848.789062 1059.507812 C 845.351562 1060.339844 841.882812 1061.121094 838.378906 1061.855469 C 834.875 1062.585938 831.34375 1063.269531 827.78125 1063.898438 C 824.222656 1064.53125 820.636719 1065.109375 817.027344 1065.640625 C 813.417969 1066.167969 809.789062 1066.644531 806.140625 1067.066406 C 802.492188 1067.492188 798.828125 1067.863281 795.148438 1068.183594 C 791.46875 1068.5 787.777344 1068.769531 784.074219 1068.980469 C 780.371094 1069.195312 776.660156 1069.355469 772.945312 1069.460938 C 769.230469 1069.566406 765.511719 1069.621094 761.789062 1069.621094 C 758.070312 1069.621094 754.351562 1069.566406 750.636719 1069.460938 C 746.917969 1069.355469 743.210938 1069.195312 739.507812 1068.980469 C 735.804688 1068.769531 732.113281 1068.5 728.433594 1068.183594 C 724.753906 1067.863281 721.085938 1067.492188 717.4375 1067.066406 C 713.789062 1066.644531 710.160156 1066.167969 706.550781 1065.640625 C 702.941406 1065.109375 699.359375 1064.53125 695.796875 1063.898438 C 692.238281 1063.269531 688.707031 1062.585938 685.203125 1061.855469 C 681.699219 1061.121094 678.230469 1060.339844 674.792969 1059.507812 C 671.355469 1058.675781 667.953125 1057.792969 664.589844 1056.863281 C 661.226562 1055.933594 657.90625 1054.957031 654.625 1053.933594 C 651.34375 1052.90625 648.105469 1051.835938 644.914062 1050.71875 C 641.722656 1049.601562 638.582031 1048.4375 635.488281 1047.230469 C 632.394531 1046.023438 629.351562 1044.769531 626.363281 1043.476562 C 623.375 1042.179688 620.445312 1040.84375 617.566406 1039.464844 C 614.691406 1038.082031 611.875 1036.664062 609.117188 1035.203125 C 606.363281 1033.742188 603.667969 1032.246094 601.039062 1030.707031 C 598.40625 1029.167969 595.84375 1027.59375 593.34375 1025.984375 C 590.84375 1024.375 588.414062 1022.726562 586.054688 1021.046875 C 583.695312 1019.367188 581.40625 1017.652344 579.191406 1015.90625 C 576.972656 1014.160156 574.832031 1012.382812 572.765625 1010.574219 C 570.699219 1008.765625 568.707031 1006.929688 566.796875 1005.066406 C 564.882812 1003.199219 563.050781 1001.308594 561.296875 999.390625 C 559.542969 997.472656 557.871094 995.53125 556.277344 993.566406 C 554.6875 991.601562 553.179688 989.613281 551.757812 987.605469 C 550.332031 985.597656 548.996094 983.566406 547.742188 981.519531 C 546.488281 979.472656 545.320312 977.410156 544.242188 975.328125 C 543.160156 973.25 542.167969 971.152344 541.265625 969.042969 C 540.359375 966.933594 539.546875 964.8125 538.820312 962.679688 C 538.09375 960.546875 537.457031 958.40625 536.914062 956.257812 C 536.367188 954.105469 535.910156 951.949219 535.546875 949.785156 C 535.179688 947.621094 534.90625 945.453125 534.726562 943.28125 C 534.542969 941.109375 534.453125 938.9375 534.453125 936.761719 C 534.453125 934.585938 534.542969 932.414062 534.726562 930.242188 C 534.90625 928.070312 535.179688 925.902344 535.546875 923.738281 C 535.910156 921.574219 536.367188 919.417969 536.914062 917.265625 C 537.457031 915.117188 538.09375 912.976562 538.820312 910.84375 C 539.546875 908.710938 540.359375 906.589844 541.265625 904.480469 C 542.167969 902.371094 543.160156 900.277344 544.242188 898.195312 C 545.320312 896.113281 546.488281 894.050781 547.742188 892.003906 C 548.996094 889.957031 550.332031 887.929688 551.757812 885.917969 C 553.179688 883.910156 554.6875 881.921875 556.277344 879.957031 C 557.871094 877.992188 559.542969 876.050781 561.296875 874.132812 C 563.050781 872.214844 564.882812 870.324219 566.796875 868.457031 C 568.707031 866.59375 570.699219 864.757812 572.765625 862.949219 C 574.832031 861.140625 576.972656 859.363281 579.191406 857.617188 C 581.40625 855.871094 583.695312 854.15625 586.054688 852.476562 C 588.414062 850.796875 590.84375 849.148438 593.34375 847.539062 C 595.84375 845.929688 598.40625 844.355469 601.039062 842.816406 C 603.667969 841.277344 606.363281 839.78125 609.117188 838.320312 C 611.875 836.859375 614.691406 835.441406 617.566406 834.058594 C 620.445312 832.679688 623.375 831.34375 626.363281 830.046875 C 629.351562 828.753906 632.394531 827.5 635.488281 826.292969 C 638.582031 825.085938 641.722656 823.921875 644.914062 822.804688 C 648.105469 821.6875 651.34375 820.617188 654.625 819.589844 C 657.90625 818.566406 661.226562 817.589844 664.589844 816.660156 C 667.953125 815.730469 671.355469 814.847656 674.792969 814.015625 C 678.230469 813.183594 681.699219 812.402344 685.203125 811.667969 C 688.707031 810.9375 692.238281 810.253906 695.796875 809.625 C 699.359375 808.992188 702.941406 808.414062 706.550781 807.882812 C 710.160156 807.355469 713.789062 806.878906 717.4375 806.457031 C 721.085938 806.03125 724.753906 805.660156 728.433594 805.339844 C 732.113281 805.023438 735.804688 804.757812 739.507812 804.542969 C 743.210938 804.328125 746.917969 804.167969 750.636719 804.0625 C 754.351562 803.957031 758.070312 803.902344 761.789062 803.902344 C 765.511719 803.902344 769.230469 803.957031 772.945312 804.0625 C 776.660156 804.167969 780.371094 804.328125 784.074219 804.542969 C 787.777344 804.753906 791.46875 805.023438 795.148438 805.339844 C 798.828125 805.660156 802.492188 806.03125 806.140625 806.457031 C 809.789062 806.878906 813.417969 807.355469 817.027344 807.882812 C 820.636719 808.414062 824.222656 808.992188 827.78125 809.625 C 831.34375 810.253906 834.875 810.9375 838.378906 811.667969 C 841.882812 812.402344 845.351562 813.183594 848.789062 814.015625 C 852.226562 814.847656 855.625 815.730469 858.988281 816.660156 C 862.351562 817.589844 865.675781 818.566406 868.957031 819.589844 C 872.238281 820.617188 875.472656 821.6875 878.664062 822.804688 C 881.855469 823.921875 885 825.085938 888.09375 826.292969 C 891.1875 827.5 894.226562 828.753906 897.214844 830.046875 C 900.203125 831.34375 903.136719 832.679688 906.011719 834.058594 C 908.886719 835.441406 911.703125 836.859375 914.460938 838.320312 C 917.21875 839.78125 919.910156 841.277344 922.542969 842.816406 C 925.171875 844.355469 927.738281 845.929688 930.238281 847.539062 C 932.734375 849.148438 935.164062 850.796875 937.523438 852.476562 C 939.886719 854.15625 942.171875 855.871094 944.390625 857.617188 C 946.605469 859.363281 948.746094 861.140625 950.816406 862.949219 C 952.882812 864.757812 954.871094 866.59375 956.785156 868.457031 C 958.699219 870.324219 960.53125 872.214844 962.285156 874.132812 C 964.039062 876.050781 965.710938 877.992188 967.300781 879.957031 C 968.890625 881.921875 970.398438 883.910156 971.824219 885.917969 C 973.246094 887.929688 974.585938 889.957031 975.839844 892.003906 C 977.09375 894.050781 978.257812 896.113281 979.339844 898.195312 C 980.417969 900.277344 981.410156 902.371094 982.316406 904.480469 C 983.21875 906.589844 984.035156 908.710938 984.761719 910.84375 C 985.484375 912.976562 986.121094 915.117188 986.667969 917.265625 C 987.214844 919.417969 987.667969 921.574219 988.035156 923.738281 C 988.398438 925.902344 988.671875 928.070312 988.855469 930.242188 C 989.039062 932.414062 989.128906 934.585938 989.128906 936.761719 Z M 989.128906 936.761719 " />
        </g>
        <path style=" stroke:none;fill-rule:nonzero;fill:#b1b9c6;fill-opacity:1;"
            d="M 1196.769531 282.128906 C 1163.242188 233.085938 1017.601562 283.464844 952.828125 308.988281 C 925.054688 298.832031 888.4375 289.925781 846.050781 282.15625 C 803.726562 274.007812 766.371094 269.015625 736.800781 268.394531 C 685.703125 221.066406 568.285156 121.300781 519.269531 154.808594 C 470.589844 188.089844 496.234375 309.382812 510.84375 364.023438 C 473.40625 406.679688 453.152344 457.292969 444.648438 502.558594 C 437.289062 541.699219 434.609375 581.667969 436.636719 622.519531 C 440.605469 702.257812 489.917969 772.179688 563.882812 802.207031 C 621.007812 825.371094 679.261719 842.535156 738.644531 853.691406 C 798.023438 864.851562 858.53125 870.007812 920.171875 869.164062 C 999.992188 868.035156 1071.324219 820.785156 1103.96875 747.929688 C 1120.6875 710.597656 1132.699219 672.382812 1140.054688 633.242188 C 1148.558594 587.992188 1148.0625 533.492188 1128.679688 480.167969 C 1162.058594 434.59375 1230.054688 330.824219 1196.769531 282.128906 Z M 1196.769531 282.128906 " />
        <path style=" stroke:none;fill-rule:nonzero;fill:#91a2b5;fill-opacity:1;"
            d="M 882.839844 317.992188 C 870.667969 382.78125 841.953125 431.722656 818.785156 427.371094 C 795.566406 423.007812 786.582031 366.976562 798.753906 302.191406 C 800.421875 293.3125 802.394531 284.746094 804.644531 276.589844 C 832.210938 280.484375 859.546875 285.625 886.636719 292.046875 C 885.777344 300.464844 884.5 309.164062 882.839844 317.992188 Z M 882.839844 317.992188 " />
        <path style=" stroke:none;fill-rule:nonzero;fill:#91a2b5;fill-opacity:1;"
            d="M 796.554688 279.746094 C 784.390625 344.484375 755.714844 393.484375 732.5 389.121094 C 710.175781 384.925781 701 332.613281 711.273438 270.855469 C 726.417969 269.800781 741.855469 269.929688 757.421875 271.261719 C 770.761719 272.433594 784.054688 273.851562 797.28125 275.617188 C 797.066406 277.015625 796.816406 278.355469 796.554688 279.746094 Z M 796.554688 279.746094 " />
        <path style=" stroke:none;fill-rule:nonzero;fill:#91a2b5;fill-opacity:1;"
            d="M 975.835938 320.007812 C 963.039062 381.546875 935.445312 427.257812 913.019531 423.046875 C 889.804688 418.683594 880.875 362.613281 893.042969 297.875 C 893.304688 296.488281 893.554688 295.144531 893.863281 293.765625 C 908.746094 297.382812 923.597656 301.460938 938.328125 305.875 C 951.3125 309.75 963.824219 314.515625 975.835938 320.007812 Z M 975.835938 320.007812 " />
        <path style=" stroke:none;fill-rule:nonzero;fill:#ffffff;fill-opacity:1;"
            d="M 1129.671875 372.703125 C 1129.671875 372.703125 1133.515625 389.140625 1131.410156 406.363281 C 1129.496094 422.285156 1117.765625 432.507812 1104.421875 435.1875 C 1083.941406 400.679688 1056.34375 370.429688 1023.191406 346.789062 C 1025.144531 338.320312 1030.289062 330.609375 1038.417969 325.613281 C 1071.0625 305.503906 1114.742188 285.410156 1139.941406 301.652344 C 1183.820312 329.976562 1129.671875 372.703125 1129.671875 372.703125 Z M 1129.671875 372.703125 " />
        <path style=" stroke:none;fill-rule:nonzero;fill:#ffffff;fill-opacity:1;"
            d="M 548.871094 263.554688 C 548.871094 263.554688 539.324219 277.476562 535.035156 294.289062 C 531.035156 309.816406 538.257812 323.601562 549.714844 330.941406 C 581.324219 306.222656 618.019531 288.054688 657.496094 278.0625 C 658.75 269.460938 656.753906 260.40625 650.992188 252.804688 C 627.878906 222.214844 594.46875 187.636719 565.09375 193.621094 C 513.925781 204.085938 548.871094 263.554688 548.871094 263.554688 Z M 548.871094 263.554688 " />
        <path style=" stroke:none;fill-rule:nonzero;fill:#678490;fill-opacity:1;"
            d="M 1205.609375 276.054688 C 1188.179688 250.558594 1148.535156 244.34375 1084.429688 257.050781 C 1037.582031 266.339844 987.582031 283.894531 952.640625 297.546875 C 925.945312 288.167969 890.960938 279.480469 848.078125 271.617188 C 805.179688 263.359375 769.402344 258.75 741.109375 257.800781 C 713.460938 232.371094 673.199219 197.835938 632.988281 172.214844 C 577.878906 137.101562 538.695312 128.503906 513.195312 145.933594 C 461.851562 181.03125 481.425781 293.464844 499.011719 361.242188 C 456.890625 411.214844 440.457031 466.761719 434.101562 500.574219 C 426.613281 540.414062 423.863281 581.621094 425.921875 623.050781 C 427.96875 664.25 441.570312 703.722656 465.25 737.199219 C 488.972656 770.738281 521.683594 796.65625 559.851562 812.148438 C 617.367188 835.472656 676.855469 852.996094 736.660156 864.238281 C 792.300781 874.691406 849.65625 879.980469 907.355469 879.980469 C 911.671875 879.980469 916 879.949219 920.320312 879.890625 C 961.503906 879.308594 1001.394531 867.035156 1035.671875 844.398438 C 1069.890625 821.800781 1096.894531 789.957031 1113.761719 752.3125 C 1130.722656 714.453125 1143.113281 675.058594 1150.601562 635.222656 C 1156.957031 601.414062 1161.808594 543.695312 1140.703125 481.839844 C 1181.648438 425.039062 1240.660156 327.328125 1205.609375 276.054688 Z M 1129.507812 631.261719 C 1122.335938 669.441406 1110.445312 707.21875 1094.175781 743.539062 C 1078.976562 777.457031 1054.660156 806.144531 1023.847656 826.488281 C 992.996094 846.863281 957.09375 857.910156 920.023438 858.433594 C 859.390625 859.269531 799.027344 854.121094 740.625 843.148438 C 682.21875 832.171875 624.113281 815.050781 567.917969 792.265625 C 533.566406 778.320312 504.121094 754.992188 482.773438 724.808594 C 461.449219 694.664062 449.203125 659.109375 447.355469 621.984375 C 445.378906 582.238281 448.019531 542.722656 455.191406 504.539062 C 463.148438 462.199219 488.015625 383.21875 565.152344 329.910156 C 570.027344 326.542969 571.246094 319.859375 567.878906 314.984375 C 564.511719 310.109375 557.824219 308.886719 552.949219 312.257812 C 539.3125 321.683594 527.210938 331.851562 516.425781 342.449219 C 493.953125 249.175781 497.050781 182.972656 525.308594 163.652344 C 552.59375 144.992188 622.332031 181.160156 709.839844 258.5 C 690.832031 260.28125 672.375 263.304688 654.976562 267.507812 C 649.214844 268.898438 645.671875 274.695312 647.066406 280.457031 C 648.457031 286.21875 654.253906 289.769531 660.015625 288.367188 C 676.640625 284.355469 694.316406 281.46875 712.550781 279.796875 C 741.605469 277.152344 785.835938 281.488281 844.117188 292.710938 C 902.402344 303.394531 945.195312 315.410156 971.292969 328.417969 C 987.6875 336.605469 1003.113281 345.707031 1017.136719 355.480469 C 1019.003906 356.78125 1021.140625 357.410156 1023.261719 357.410156 C 1026.652344 357.410156 1029.988281 355.804688 1032.074219 352.8125 C 1035.464844 347.949219 1034.265625 341.261719 1029.40625 337.871094 C 1014.71875 327.640625 998.609375 318.113281 981.519531 309.546875 C 1091.105469 269.222656 1169.214844 260.839844 1187.894531 288.171875 C 1207.179688 316.382812 1186.046875 379.199219 1131.296875 457.996094 C 1125.097656 444.210938 1117.511719 430.34375 1108.226562 416.609375 C 1104.90625 411.703125 1098.234375 410.410156 1093.328125 413.730469 C 1088.421875 417.050781 1087.128906 423.722656 1090.449219 428.632812 C 1142.96875 506.300781 1137.464844 588.921875 1129.507812 631.261719 Z M 1129.507812 631.261719 " />
        <path style=" stroke:none;fill-rule:nonzero;fill:#605c5d;fill-opacity:1;"
            d="M 972.921875 644.542969 C 972.261719 644.542969 971.597656 644.480469 970.925781 644.355469 C 965.101562 643.261719 961.269531 637.652344 962.363281 631.828125 C 963.792969 624.226562 962.171875 616.523438 957.808594 610.140625 C 953.445312 603.753906 946.851562 599.453125 939.25 598.023438 C 923.5625 595.066406 908.390625 605.441406 905.441406 621.132812 C 904.347656 626.957031 898.730469 630.785156 892.914062 629.699219 C 887.09375 628.605469 883.257812 622.996094 884.351562 617.171875 C 886.839844 603.9375 894.332031 592.460938 905.449219 584.859375 C 916.566406 577.261719 929.976562 574.441406 943.214844 576.933594 C 956.449219 579.417969 967.921875 586.910156 975.523438 598.027344 C 983.121094 609.144531 985.9375 622.558594 983.449219 635.792969 C 982.484375 640.949219 977.980469 644.542969 972.921875 644.542969 Z M 972.921875 644.542969 " />
        <path style=" stroke:none;fill-rule:nonzero;fill:#605c5d;fill-opacity:1;"
            d="M 678.203125 589.15625 C 677.546875 589.15625 676.878906 589.097656 676.210938 588.972656 C 670.386719 587.878906 666.550781 582.269531 667.644531 576.441406 C 669.074219 568.84375 667.457031 561.140625 663.09375 554.753906 C 658.726562 548.367188 652.136719 544.066406 644.535156 542.636719 C 636.929688 541.203125 629.230469 542.824219 622.84375 547.191406 C 616.460938 551.554688 612.15625 558.144531 610.726562 565.746094 C 609.632812 571.570312 604.011719 575.402344 598.199219 574.3125 C 592.375 573.21875 588.542969 567.609375 589.636719 561.78125 C 592.125 548.546875 599.613281 537.074219 610.734375 529.472656 C 621.847656 521.871094 635.261719 519.054688 648.496094 521.542969 C 661.730469 524.03125 673.207031 531.523438 680.804688 542.640625 C 688.40625 553.757812 691.222656 567.171875 688.734375 580.40625 C 687.769531 585.5625 683.265625 589.15625 678.203125 589.15625 Z M 678.203125 589.15625 " />
        <path style=" stroke:none;fill-rule:nonzero;fill:#678490;fill-opacity:1;"
            d="M 850.441406 619.246094 C 850.179688 620.636719 844.199219 651.921875 829.339844 679.894531 C 815.652344 705.726562 794.425781 728.75 763.222656 722.886719 C 731.972656 717.011719 720.5625 687.800781 717.183594 658.765625 C 713.542969 627.316406 719.316406 596.046875 719.578125 594.65625 C 720.542969 609.730469 731.539062 622.839844 747.113281 625.769531 C 765.417969 629.210938 783.097656 617.125 786.550781 598.769531 C 783.097656 617.125 795.183594 634.804688 813.542969 638.253906 C 829.066406 641.167969 844.066406 632.945312 850.441406 619.246094 Z M 850.441406 619.246094 " />
        <path style=" stroke:none;fill-rule:nonzero;fill:#fd80a6;fill-opacity:1;"
            d="M 829.335938 679.894531 C 815.648438 705.726562 794.425781 728.75 763.222656 722.886719 C 731.96875 717.011719 720.558594 687.800781 717.183594 658.765625 C 732.617188 648.519531 752.375 643.140625 777.328125 647.828125 C 802.28125 652.519531 818.699219 664.640625 829.335938 679.894531 Z M 829.335938 679.894531 " />
        <path style=" stroke:none;fill-rule:nonzero;fill:#91a2b5;fill-opacity:1;"
            d="M 1021.988281 712.300781 C 1021.332031 712.300781 1020.664062 712.238281 1019.996094 712.113281 L 958.367188 700.53125 C 952.539062 699.4375 948.707031 693.828125 949.800781 688.007812 C 950.894531 682.179688 956.503906 678.347656 962.328125 679.441406 L 1023.960938 691.023438 C 1029.785156 692.117188 1033.617188 697.726562 1032.523438 703.550781 C 1031.554688 708.703125 1027.050781 712.300781 1021.988281 712.300781 Z M 1021.988281 712.300781 " />
        <path style=" stroke:none;fill-rule:nonzero;fill:#91a2b5;fill-opacity:1;"
            d="M 999.878906 768.089844 C 998 768.089844 996.097656 767.597656 994.371094 766.558594 L 947.453125 738.410156 C 942.371094 735.359375 940.726562 728.769531 943.773438 723.6875 C 946.824219 718.605469 953.414062 716.957031 958.496094 720.007812 L 1005.414062 748.160156 C 1010.492188 751.207031 1012.140625 757.800781 1009.089844 762.882812 C 1007.082031 766.234375 1003.523438 768.089844 999.878906 768.089844 Z M 999.878906 768.089844 " />
        <path style=" stroke:none;fill-rule:nonzero;fill:#91a2b5;fill-opacity:1;"
            d="M 591.507812 631.402344 C 590.847656 631.402344 590.183594 631.339844 589.511719 631.214844 L 527.882812 619.632812 C 522.058594 618.539062 518.226562 612.929688 519.320312 607.109375 C 520.414062 601.28125 526.023438 597.453125 531.84375 598.542969 L 593.476562 610.125 C 599.300781 611.21875 603.132812 616.828125 602.039062 622.65625 C 601.074219 627.808594 596.566406 631.402344 591.507812 631.402344 Z M 591.507812 631.402344 " />
        <path style=" stroke:none;fill-rule:nonzero;fill:#91a2b5;fill-opacity:1;"
            d="M 530.175781 679.820312 C 525.042969 679.820312 520.503906 676.125 519.613281 670.894531 C 518.617188 665.050781 522.542969 659.507812 528.386719 658.511719 L 582.320312 649.3125 C 588.171875 648.320312 593.707031 652.246094 594.703125 658.085938 C 595.699219 663.929688 591.769531 669.472656 585.929688 670.46875 L 531.992188 679.667969 C 531.386719 679.773438 530.777344 679.820312 530.175781 679.820312 Z M 530.175781 679.820312 " />
        <path style=" stroke:none;fill-rule:nonzero;fill:#ffffff;fill-opacity:1;"
            d="M 925.503906 545.457031 C 924.84375 545.457031 924.175781 545.398438 923.507812 545.273438 L 891.175781 539.195312 C 885.351562 538.101562 881.519531 532.492188 882.613281 526.667969 C 883.707031 520.839844 889.320312 517.011719 895.140625 518.101562 L 927.472656 524.179688 C 933.296875 525.273438 937.128906 530.882812 936.035156 536.707031 C 935.066406 541.863281 930.5625 545.457031 925.503906 545.457031 Z M 925.503906 545.457031 " />
        <path style=" stroke:none;fill-rule:nonzero;fill:#ffffff;fill-opacity:1;"
            d="M 712.683594 505.464844 C 712.023438 505.464844 711.355469 505.402344 710.6875 505.277344 L 678.355469 499.199219 C 672.53125 498.105469 668.699219 492.496094 669.792969 486.675781 C 670.886719 480.851562 676.496094 477.015625 682.320312 478.109375 L 714.652344 484.1875 C 720.476562 485.28125 724.308594 490.890625 723.214844 496.710938 C 722.246094 501.867188 717.742188 505.464844 712.683594 505.464844 Z M 712.683594 505.464844 " />
        <path style=" stroke:none;fill-rule:nonzero;fill:#678490;fill-opacity:1;"
            d="M 853.699219 608.984375 C 848.542969 607.347656 842.976562 609.808594 840.710938 614.722656 C 836.289062 624.324219 825.941406 629.660156 815.519531 627.703125 C 809.460938 626.566406 804.203125 623.136719 800.722656 618.046875 C 797.550781 613.40625 796.222656 607.898438 796.867188 602.378906 L 802.621094 603.460938 C 803.476562 603.621094 804.320312 603.699219 805.160156 603.699219 C 811.601562 603.699219 817.332031 599.121094 818.566406 592.5625 C 819.960938 585.148438 815.078125 578.011719 807.667969 576.617188 L 773.050781 570.113281 C 765.636719 568.726562 758.503906 573.601562 757.109375 581.011719 C 755.714844 588.425781 760.597656 595.5625 768.007812 596.957031 L 775.621094 598.386719 C 772.589844 609.984375 761.039062 617.457031 749.070312 615.21875 C 738.648438 613.257812 730.925781 604.519531 730.292969 593.972656 C 729.964844 588.574219 725.671875 584.257812 720.269531 583.910156 C 714.898438 583.597656 710.058594 587.285156 709.042969 592.597656 C 708.457031 595.648438 695.046875 667.761719 722.398438 707.921875 C 731.84375 721.792969 744.914062 730.378906 761.242188 733.449219 C 765.207031 734.195312 769.113281 734.566406 772.953125 734.566406 C 784.914062 734.566406 796.226562 730.953125 806.699219 723.765625 C 846.769531 696.269531 860.449219 624.210938 861.011719 621.15625 C 861.992188 615.835938 858.855469 610.621094 853.699219 608.984375 Z M 829.191406 654.136719 C 819.714844 679.082031 807.726562 697.046875 794.53125 706.089844 C 785.449219 712.3125 775.859375 714.359375 765.203125 712.359375 C 754.546875 710.355469 746.351562 704.960938 740.152344 695.871094 C 731.136719 682.652344 726.492188 661.5625 726.710938 634.878906 C 726.730469 632.664062 726.785156 630.492188 726.859375 628.382812 C 732.132812 632.269531 738.324219 635.035156 745.105469 636.308594 C 758.375 638.800781 771.390625 635.105469 781.179688 627.261719 C 781.75 628.246094 782.359375 629.210938 783.007812 630.160156 C 789.722656 639.976562 799.859375 646.597656 811.554688 648.792969 C 818.328125 650.066406 825.089844 649.742188 831.410156 648.035156 C 830.71875 650.03125 829.980469 652.070312 829.191406 654.136719 Z M 829.191406 654.136719 " />
        <path style=" stroke:none;fill-rule:nonzero;fill:#ffff9d;fill-opacity:1;"
            d="M 779.964844 283.71875 L 926.339844 109.0625 C 943.140625 89.019531 975.804688 99.960938 977.136719 126.078125 L 988.777344 353.664062 C 911.804688 392.011719 818.3125 360.695312 779.964844 283.71875 Z M 779.964844 283.71875 " />
        <path style=" stroke:none;fill-rule:nonzero;fill:#fd80a6;fill-opacity:1;"
            d="M 988.773438 353.667969 L 982.074219 222.539062 C 911.039062 198.746094 913.59375 124.347656 913.59375 124.347656 L 913.566406 124.296875 L 849.402344 200.878906 C 849.402344 200.878906 874.035156 315.238281 988.773438 353.667969 Z M 988.773438 353.667969 " />
        <path style=" stroke:none;fill-rule:nonzero;fill:#ffcc6b;fill-opacity:1;"
            d="M 919.613281 380.714844 C 858.429688 380.714844 799.445312 346.886719 770.363281 288.503906 C 768.457031 284.683594 769 280.097656 771.742188 276.828125 L 918.117188 102.171875 C 928.625 89.636719 945.433594 84.890625 960.945312 90.089844 C 976.457031 95.28125 987.019531 109.195312 987.855469 125.535156 L 999.496094 353.117188 C 999.714844 357.382812 997.382812 361.367188 993.566406 363.273438 C 969.796875 375.105469 944.523438 380.714844 919.613281 380.714844 Z M 792.820312 285.085938 C 810.441406 316.65625 838.78125 340.203125 873.296875 351.761719 C 907.808594 363.320312 944.613281 361.601562 977.695312 347.015625 L 966.421875 126.625 C 966.03125 118.933594 961.433594 112.878906 954.128906 110.433594 C 946.824219 107.984375 939.511719 110.050781 934.5625 115.953125 Z M 792.820312 285.085938 " />
        <path style=" stroke:none;fill-rule:nonzero;fill:#b1b9c6;fill-opacity:1;"
            d="M 663.050781 861.242188 C 663.050781 861.242188 443.296875 540.203125 358.679688 584.355469 C 274.066406 628.503906 534.453125 936.761719 534.453125 936.761719 Z M 663.050781 861.242188 " />
        <path style=" stroke:none;fill-rule:nonzero;fill:#b1b9c6;fill-opacity:1;"
            d="M 860.53125 890.144531 C 860.53125 890.144531 1080.285156 569.109375 1164.902344 613.257812 C 1249.515625 657.410156 989.128906 965.667969 989.128906 965.667969 Z M 860.53125 890.144531 " />
        <path style=" stroke:none;fill-rule:nonzero;fill:#678490;fill-opacity:1;"
            d="M 534.457031 947.492188 C 531.40625 947.492188 528.375 946.199219 526.253906 943.6875 C 525.730469 943.066406 473.292969 880.839844 423.582031 809.160156 C 355.511719 711.011719 324.753906 642.148438 332.167969 604.472656 C 334.804688 591.066406 342.257812 580.820312 353.71875 574.839844 C 394.335938 553.648438 458.753906 594.3125 550.664062 699.167969 C 615.847656 773.527344 671.351562 854.371094 671.902344 855.179688 C 675.25 860.070312 674 866.746094 669.109375 870.09375 C 664.21875 873.4375 657.542969 872.191406 654.191406 867.300781 C 653.644531 866.503906 598.773438 786.59375 534.414062 713.1875 C 454.734375 622.308594 392.484375 578.816406 363.644531 593.867188 C 357.925781 596.847656 354.613281 601.535156 353.222656 608.613281 C 340.53125 673.117188 485.65625 862.359375 542.644531 929.835938 C 546.46875 934.363281 545.898438 941.132812 541.371094 944.957031 C 539.363281 946.660156 536.902344 947.492188 534.457031 947.492188 Z M 534.457031 947.492188 " />
        <path style=" stroke:none;fill-rule:nonzero;fill:#678490;fill-opacity:1;"
            d="M 989.125 976.394531 C 986.679688 976.394531 984.222656 975.5625 982.207031 973.863281 C 977.675781 970.039062 977.109375 963.269531 980.933594 958.742188 C 1037.921875 891.265625 1183.046875 702.019531 1170.355469 637.519531 C 1168.964844 630.4375 1165.652344 625.753906 1159.933594 622.769531 C 1131.074219 607.710938 1068.792969 651.25 989.054688 742.214844 C 924.707031 815.625 869.929688 895.410156 869.386719 896.207031 C 866.039062 901.09375 859.359375 902.34375 854.46875 899 C 849.578125 895.652344 848.328125 888.972656 851.675781 884.082031 C 852.230469 883.277344 907.730469 802.433594 972.914062 728.070312 C 1064.824219 623.21875 1129.242188 582.550781 1169.863281 603.746094 C 1181.324219 609.722656 1188.777344 619.972656 1191.414062 633.378906 C 1198.824219 671.050781 1168.066406 739.917969 1100 838.0625 C 1050.285156 909.742188 997.851562 971.96875 997.328125 972.589844 C 995.207031 975.101562 992.175781 976.394531 989.125 976.394531 Z M 989.125 976.394531 " />
        <path style=" stroke:none;fill-rule:nonzero;fill:#f6608e;fill-opacity:1;"
            d="M 288.996094 437.300781 C 283.070312 437.300781 278.265625 432.496094 278.265625 426.566406 C 278.265625 420.640625 283.070312 415.835938 288.996094 415.835938 C 298.011719 415.835938 305.34375 408.503906 305.34375 399.488281 C 305.34375 393.5625 310.148438 388.757812 316.074219 388.757812 C 322.003906 388.757812 326.804688 393.5625 326.804688 399.488281 C 326.804688 420.335938 309.84375 437.300781 288.996094 437.300781 Z M 288.996094 437.300781 " />
        <path style=" stroke:none;fill-rule:nonzero;fill:#4ecab3;fill-opacity:1;"
            d="M 1232.785156 535.175781 C 1211.9375 535.175781 1194.976562 518.214844 1194.976562 497.367188 C 1194.976562 491.441406 1199.777344 486.636719 1205.707031 486.636719 C 1211.632812 486.636719 1216.4375 491.441406 1216.4375 497.367188 C 1216.4375 506.382812 1223.769531 513.714844 1232.785156 513.714844 C 1238.710938 513.714844 1243.515625 518.519531 1243.515625 524.449219 C 1243.515625 530.371094 1238.710938 535.175781 1232.785156 535.175781 Z M 1232.785156 535.175781 " />
        <path style=" stroke:none;fill-rule:nonzero;fill:#4ecab3;fill-opacity:1;"
            d="M 1079.253906 203.667969 C 1058.40625 203.667969 1041.445312 186.707031 1041.445312 165.859375 C 1041.445312 159.933594 1046.246094 155.128906 1052.175781 155.128906 C 1058.101562 155.128906 1062.90625 159.933594 1062.90625 165.859375 C 1062.90625 174.875 1070.242188 182.210938 1079.253906 182.210938 C 1085.183594 182.210938 1089.984375 187.015625 1089.984375 192.941406 C 1089.984375 198.867188 1085.179688 203.667969 1079.253906 203.667969 Z M 1079.253906 203.667969 " />
        <path style=" stroke:none;fill-rule:nonzero;fill:#4ecab3;fill-opacity:1;"
            d="M 419.605469 437.300781 C 398.757812 437.300781 381.796875 420.335938 381.796875 399.488281 C 381.796875 393.5625 386.597656 388.757812 392.527344 388.757812 C 398.453125 388.757812 403.257812 393.5625 403.257812 399.488281 C 403.257812 408.503906 410.59375 415.839844 419.605469 415.839844 C 425.535156 415.839844 430.335938 420.644531 430.335938 426.570312 C 430.335938 432.496094 425.53125 437.300781 419.605469 437.300781 Z M 419.605469 437.300781 " />
        <path style=" stroke:none;fill-rule:nonzero;fill:#00d4d7;fill-opacity:1;"
            d="M 341.265625 521.105469 C 341.125 521.105469 340.984375 521.105469 340.84375 521.097656 C 334.921875 520.867188 330.304688 515.882812 330.535156 509.960938 C 330.921875 499.871094 335.21875 490.53125 342.628906 483.675781 C 350.039062 476.8125 359.667969 473.234375 369.773438 473.636719 C 375.691406 473.867188 380.308594 478.851562 380.082031 484.773438 C 379.855469 490.695312 374.882812 495.300781 368.945312 495.082031 C 364.574219 494.90625 360.414062 496.457031 357.210938 499.421875 C 354.003906 502.390625 352.148438 506.425781 351.980469 510.789062 C 351.757812 516.570312 347 521.105469 341.265625 521.105469 Z M 341.265625 521.105469 " />
        <path style=" stroke:none;fill-rule:nonzero;fill:#f6608e;fill-opacity:1;"
            d="M 1226.433594 668.199219 C 1222.214844 668.199219 1218.210938 665.691406 1216.507812 661.546875 C 1208.582031 642.265625 1217.820312 620.128906 1237.101562 612.203125 C 1242.578125 609.953125 1248.851562 612.566406 1251.105469 618.046875 C 1253.359375 623.527344 1250.742188 629.796875 1245.261719 632.050781 C 1241.222656 633.710938 1238.074219 636.847656 1236.390625 640.875 C 1234.707031 644.90625 1234.695312 649.347656 1236.355469 653.386719 C 1238.609375 658.871094 1235.992188 665.140625 1230.511719 667.394531 C 1229.175781 667.941406 1227.792969 668.199219 1226.433594 668.199219 Z M 1226.433594 668.199219 " />
        <path style=" stroke:none;fill-rule:nonzero;fill:#00d4d7;fill-opacity:1;"
            d="M 809.304688 194.265625 C 805.082031 194.265625 801.078125 191.757812 799.375 187.609375 C 795.535156 178.269531 795.5625 167.992188 799.453125 158.671875 C 803.34375 149.351562 810.628906 142.105469 819.972656 138.265625 C 825.449219 136.015625 831.71875 138.628906 833.972656 144.113281 C 836.226562 149.59375 833.609375 155.863281 828.128906 158.117188 C 824.089844 159.777344 820.9375 162.910156 819.257812 166.9375 C 817.574219 170.96875 817.5625 175.414062 819.222656 179.453125 C 821.476562 184.933594 818.859375 191.203125 813.378906 193.457031 C 812.046875 194.003906 810.664062 194.265625 809.304688 194.265625 Z M 809.304688 194.265625 " />
        <path style=" stroke:none;fill-rule:nonzero;fill:#ffcc6b;fill-opacity:1;"
            d="M 1234.828125 426.867188 C 1230.609375 426.867188 1226.605469 424.359375 1224.902344 420.214844 C 1216.976562 400.933594 1226.214844 378.796875 1245.496094 370.871094 C 1250.976562 368.621094 1257.246094 371.234375 1259.5 376.714844 C 1261.753906 382.195312 1259.136719 388.464844 1253.65625 390.71875 C 1249.617188 392.378906 1246.46875 395.515625 1244.785156 399.542969 C 1243.101562 403.574219 1243.089844 408.015625 1244.75 412.054688 C 1247.003906 417.539062 1244.386719 423.808594 1238.90625 426.0625 C 1237.574219 426.609375 1236.1875 426.867188 1234.828125 426.867188 Z M 1234.828125 426.867188 " />
        <path style=" stroke:none;fill-rule:nonzero;fill:#ffcc6b;fill-opacity:1;"
            d="M 385.710938 328.640625 C 376.5 328.640625 367.710938 325.324219 360.742188 319.175781 C 356.300781 315.253906 355.875 308.476562 359.796875 304.03125 C 363.722656 299.585938 370.503906 299.167969 374.945312 303.085938 C 378.21875 305.976562 382.425781 307.425781 386.78125 307.144531 C 391.140625 306.871094 395.128906 304.917969 398.019531 301.644531 C 401.941406 297.199219 408.722656 296.78125 413.164062 300.699219 C 417.609375 304.621094 418.03125 311.402344 414.109375 315.84375 C 407.429688 323.417969 398.195312 327.933594 388.117188 328.5625 C 387.3125 328.613281 386.507812 328.640625 385.710938 328.640625 Z M 385.710938 328.640625 " />
        <path style=" stroke:none;fill-rule:nonzero;fill:#ffcc6b;fill-opacity:1;"
            d="M 750.964844 114.015625 C 742.070312 114.015625 733.144531 110.90625 725.96875 104.574219 C 721.523438 100.652344 721.101562 93.871094 725.023438 89.425781 C 728.945312 84.980469 735.726562 84.5625 740.167969 88.480469 C 746.925781 94.445312 757.277344 93.800781 763.246094 87.042969 C 767.167969 82.597656 773.949219 82.175781 778.390625 86.097656 C 782.832031 90.019531 783.257812 96.800781 779.335938 101.242188 C 771.875 109.699219 761.441406 114.015625 750.964844 114.015625 Z M 750.964844 114.015625 " />
    </g>
</svg>